<?xml version="1.0" encoding="UTF-8"?>
<svg xmlns="http://www.w3.org/2000/svg" viewBox="0 0 93.03 108.92">
  <defs>
    <style>
      .cls-1 {
        fill: #fff;
      }

      .cls-2 {
        isolation: isolate;
      }

      .cls-3 {
        fill: #ccc;
      }

      .cls-4 {
        mix-blend-mode: multiply;
      }
    </style>
  </defs>
  <g class="cls-2">
    <g id="Capa_1" data-name="Capa 1">
      <g>
        <g class="cls-4">
          <g>
            <g id="_01_location" data-name="01 location">
              <path class="cls-3" d="m63.34,47.93c0,6.51-5.11,11.62-11.62,11.62s-11.62-5.11-11.62-11.62,5.11-11.62,11.62-11.62,11.62,5.11,11.62,11.62Zm13.01-7.2c-3.25-10.92-13.25-18.36-24.63-18.36s-21.38,7.44-24.63,18.36c-1.16,4.18-1.16,8.6-.23,13.01,1.63,5.34,6.27,14.64,18.36,29.05.46.7,1.16,1.39,1.63,1.86.7.93,1.63,1.63,2.56,2.32,1.39.7,3.02.7,4.42,0,.93-.7,1.86-1.39,2.56-2.32.46-.7,1.16-1.39,1.63-1.86,12.08-14.17,16.73-23.7,18.12-29.05,1.39-4.42,1.39-8.83.23-13.01Z"/>
            </g>
            <path class="cls-3" d="m58.18,42.78c0,6.51-5.11,11.62-11.62,11.62s-11.62-5.11-11.62-11.62,5.11-11.62,11.62-11.62,11.62,5.11,11.62,11.62Zm13.01-7.2c-3.25-10.92-13.25-18.36-24.63-18.36s-21.38,7.44-24.63,18.36c-1.16,4.18-1.16,8.6-.23,13.01,1.63,5.34,6.27,14.64,18.36,29.05.46.7,1.16,1.39,1.63,1.86.7.93,1.63,1.63,2.56,2.32,1.39.7,3.02.7,4.42,0,.93-.7,1.86-1.39,2.56-2.32.46-.7,1.16-1.39,1.63-1.86,12.08-14.17,16.73-23.7,18.12-29.05,1.39-4.42,1.39-8.83.23-13.01Z"/>
            <g id="_01_location-2" data-name="01 location">
              <path class="cls-3" d="m53.02,37.63c0,6.51-5.11,11.62-11.62,11.62s-11.62-5.11-11.62-11.62,5.11-11.62,11.62-11.62,11.62,5.11,11.62,11.62Zm13.01-7.2c-3.25-10.92-13.25-18.36-24.63-18.36s-21.38,7.44-24.63,18.36c-1.16,4.18-1.16,8.6-.23,13.01,1.63,5.34,6.27,14.64,18.36,29.05.46.7,1.16,1.39,1.63,1.86.7.93,1.63,1.63,2.56,2.32,1.39.7,3.02.7,4.42,0,.93-.7,1.86-1.39,2.56-2.32.46-.7,1.16-1.39,1.63-1.86,12.08-14.17,16.73-23.7,18.12-29.05,1.39-4.42,1.39-8.83.23-13.01Z"/>
            </g>
          </g>
          <g>
            <g id="_01_location-3" data-name="01 location">
              <path class="cls-3" d="m63.34,47.93c0,6.51-5.11,11.62-11.62,11.62s-11.62-5.11-11.62-11.62,5.11-11.62,11.62-11.62,11.62,5.11,11.62,11.62Zm13.01-7.2c-3.25-10.92-13.25-18.36-24.63-18.36s-21.38,7.44-24.63,18.36c-1.16,4.18-1.16,8.6-.23,13.01,1.63,5.34,6.27,14.64,18.36,29.05.46.7,1.16,1.39,1.63,1.86.7.93,1.63,1.63,2.56,2.32,1.39.7,3.02.7,4.42,0,.93-.7,1.86-1.39,2.56-2.32.46-.7,1.16-1.39,1.63-1.86,12.08-14.17,16.73-23.7,18.12-29.05,1.39-4.42,1.39-8.83.23-13.01Z"/>
            </g>
            <path class="cls-3" d="m58.18,42.78c0,6.51-5.11,11.62-11.62,11.62s-11.62-5.11-11.62-11.62,5.11-11.62,11.62-11.62,11.62,5.11,11.62,11.62Zm13.01-7.2c-3.25-10.92-13.25-18.36-24.63-18.36s-21.38,7.44-24.63,18.36c-1.16,4.18-1.16,8.6-.23,13.01,1.63,5.34,6.27,14.64,18.36,29.05.46.7,1.16,1.39,1.63,1.86.7.93,1.63,1.63,2.56,2.32,1.39.7,3.02.7,4.42,0,.93-.7,1.86-1.39,2.56-2.32.46-.7,1.16-1.39,1.63-1.86,12.08-14.17,16.73-23.7,18.12-29.05,1.39-4.42,1.39-8.83.23-13.01Z"/>
            <g id="_01_location-4" data-name="01 location">
              <path class="cls-3" d="m53.02,37.63c0,6.51-5.11,11.62-11.62,11.62s-11.62-5.11-11.62-11.62,5.11-11.62,11.62-11.62,11.62,5.11,11.62,11.62Zm13.01-7.2c-3.25-10.92-13.25-18.36-24.63-18.36s-21.38,7.44-24.63,18.36c-1.16,4.18-1.16,8.6-.23,13.01,1.63,5.34,6.27,14.64,18.36,29.05.46.7,1.16,1.39,1.63,1.86.7.93,1.63,1.63,2.56,2.32,1.39.7,3.02.7,4.42,0,.93-.7,1.86-1.39,2.56-2.32.46-.7,1.16-1.39,1.63-1.86,12.08-14.17,16.73-23.7,18.12-29.05,1.39-4.42,1.39-8.83.23-13.01Z"/>
            </g>
          </g>
        </g>
        <g id="_01_location-5" data-name="01 location">
          <path class="cls-1" d="m66,29.88c-3.25-10.92-13.25-18.36-24.63-18.36s-21.38,7.44-24.63,18.36c-1.16,4.18-1.16,8.6-.23,13.01,1.63,5.34,6.27,14.64,18.36,29.05.46.7,1.16,1.39,1.63,1.86.7.93,1.63,1.63,2.56,2.32,1.39.7,3.02.7,4.42,0,.93-.7,1.86-1.39,2.56-2.32.46-.7,1.16-1.39,1.63-1.86,12.08-14.17,16.73-23.7,18.12-29.05,1.39-4.42,1.39-8.83.23-13.01Zm-13.01,7.2c0,6.51-5.11,11.62-11.62,11.62s-11.62-5.11-11.62-11.62,5.11-11.62,11.62-11.62,11.62,5.11,11.62,11.62Z"/>
        </g>
      </g>
    </g>
  </g>
</svg>