<?xml version="1.0" encoding="UTF-8"?>
<svg xmlns="http://www.w3.org/2000/svg" viewBox="0 0 93.03 108.92">
  <defs>
    <style>
      .cls-1 {
        fill: #fff;
      }

      .cls-2 {
        isolation: isolate;
      }

      .cls-3 {
        fill: #ccc;
        mix-blend-mode: multiply;
      }
    </style>
  </defs>
  <g class="cls-2">
    <g id="Capa_1" data-name="Capa 1">
      <g>
        <path class="cls-3" d="m38.41,41.34c-.43.13-.85.26-1.26.45-.23.1-.44.23-.66.35-.35.2-.7.4-1.02.64-.21.15-.41.32-.6.49-.3.26-.58.54-.84.83-.1.11-.23.2-.32.32-.08.1-.15.22-.23.33-.15.2-.29.41-.42.62-.09.14-.2.27-.28.41-.1.17-.17.36-.25.54-.07.15-.15.3-.21.45-.04.09-.09.17-.12.26-.16.41-.28.83-.38,1.26,0,0,0,.02,0,.03,0,.04-.01.09-.02.13-.08.39-.15.79-.18,1.2-.01.19-.02.38-.03.57,0,.35,0,.7.04,1.04.02.22.07.42.1.63.02.13.04.27.07.4.11.5.24,1,.42,1.47.01.04.04.07.05.11.04.09.08.17.12.25.19.43.41.84.66,1.24.07.11.14.22.21.33.05.08.1.16.15.24.27.37.57.72.9,1.05,0,0,0,0,0,0l7.79,7.82c-.4.03-.8.07-1.21.07-2.5,0-4.86-.63-6.9-1.74-1.23-.67-2.35-1.51-3.33-2.49h0s0,0,0,0l11.04,11.08c2.61,2.62,6.22,4.24,10.23,4.24.54,0,1.07-.03,1.6-.09.17-.02.34-.05.51-.08.35-.05.7-.11,1.04-.18.2-.04.39-.1.58-.15.31-.08.62-.17.92-.27.2-.07.39-.14.59-.21.29-.11.57-.23.85-.36.19-.09.38-.17.56-.27.28-.14.54-.29.81-.45.17-.1.34-.2.51-.31.28-.18.55-.38.81-.57.14-.1.28-.2.42-.31.34-.27.66-.56.97-.85.05-.05.11-.1.16-.15.36-.35.69-.73,1.01-1.11.02-.02.03-.04.05-.05.03-.03.05-.08.07-.11.49-.61.93-1.25,1.31-1.93.02-.03.04-.05.05-.08,0-.01,0-.02.02-.03.31-.55.57-1.12.8-1.71.03-.07.07-.13.09-.2.03-.08.05-.17.08-.25.17-.48.32-.97.44-1.47.02-.08.05-.15.07-.23,0-.02,0-.05.01-.07.13-.6.22-1.22.28-1.85,0-.06.02-.12.03-.18.03-.34.04-.68.04-1.02,0-.5-.02-.99-.06-1.48,0,0,0,0,0,0-.06-.61-.16-1.2-.29-1.79-.04-.17-.08-.33-.12-.49-.12-.45-.25-.89-.41-1.33-.03-.09-.05-.19-.09-.28-.02-.04-.04-.08-.06-.13-.21-.53-.45-1.05-.73-1.55-.05-.09-.11-.18-.17-.28-.23-.41-.49-.8-.76-1.18-.05-.07-.09-.14-.14-.21-.05-.06-.11-.12-.16-.18-.38-.5-.78-.98-1.22-1.42,0,0,0,0,0,0l-11.04-11.08c.44.44.85.93,1.23,1.43.1.13.19.26.29.39.27.38.53.78.76,1.19.05.09.11.18.17.27.27.5.51,1.02.73,1.55.05.13.1.27.15.41.16.43.3.87.41,1.33.04.16.09.33.12.49.13.59.24,1.18.29,1.79.05.49.07.98.06,1.48,0,.38-.03.76-.07,1.13l-7.81-7.83c-1.67-1.67-3.97-2.72-6.53-2.74-.03,0-.06,0-.08,0-.7,0-1.37.09-2.03.23-.22.05-.41.13-.62.19Zm6.1,14.49c.17-.23.36-.44.55-.65.26-.29.54-.57.84-.83.2-.17.4-.34.61-.49.32-.24.67-.45,1.02-.64.22-.12.43-.25.66-.36.4-.18.83-.32,1.26-.45.21-.06.41-.14.62-.19.66-.14,1.33-.23,2.03-.23.03,0,.06,0,.08,0,1.11,0,2.16.24,3.14.6-.04.27-.06.54-.12.8-.02.1-.06.2-.08.31-.12.5-.27.99-.44,1.47-.05.15-.11.3-.17.45-.23.59-.5,1.16-.8,1.71-.02.04-.05.07-.07.11-.39.68-.83,1.32-1.31,1.93-.04.05-.08.11-.12.16-.32.39-.66.76-1.01,1.11-.05.05-.1.09-.15.14-.31.3-.64.59-.97.86-.13.11-.28.2-.41.31-.27.2-.53.4-.81.58-.17.11-.34.21-.51.31-.27.16-.54.31-.81.45-.18.09-.37.18-.56.27-.28.13-.56.25-.85.36-.19.07-.39.15-.58.21-.3.1-.61.19-.92.27-.19.05-.38.11-.58.15-.27.06-.55.1-.82.14-.15-.42-.29-.85-.39-1.29-.03-.13-.04-.27-.07-.4-.09-.55-.15-1.1-.14-1.67,0-.61.09-1.2.21-1.78,0-.04,0-.08.02-.12.12-.54.3-1.05.51-1.55.06-.15.14-.3.21-.45.16-.33.34-.65.53-.95.13-.21.27-.42.42-.62Z"/>
        <path class="cls-3" d="m28.19,84.99c1.85,1.86,4.29,3.19,7.3,3.96,2.27.59,9.02.84,15.78.84s13.21-.24,15.66-.63c.93-.15,1.8-.37,2.64-.63.26-.08.5-.19.76-.28.56-.21,1.1-.43,1.62-.69.26-.13.52-.27.77-.42.48-.28.94-.59,1.38-.93.21-.16.43-.31.63-.49.52-.45,1.01-.94,1.46-1.48.06-.07.14-.13.2-.21.01-.01.02-.03.03-.04.49-.6.93-1.26,1.33-1.96.02-.03.04-.06.06-.09.12-.21.2-.45.31-.67.23-.46.46-.91.65-1.41.03-.07.06-.12.09-.19.23-.6.43-1.23.61-1.88.03-.12.06-.25.09-.39.04-.19.08-.42.12-.64,0-.04.01-.07.02-.11.06-.38.12-.81.17-1.27.01-.12.03-.23.04-.35.05-.44.09-.9.13-1.39,0-.05,0-.1.01-.16,0-.02,0-.03,0-.05.04-.55.08-1.14.11-1.74.01-.19.02-.39.03-.58.02-.45.05-.91.07-1.38,0-.24.02-.49.03-.74.02-.46.03-.93.05-1.4,0-.25.01-.49.02-.74.01-.57.03-1.14.04-1.72,0-.15,0-.29,0-.44.01-.73.02-1.47.02-2.21,0-.2,0-.4,0-.6,0-.54,0-1.09,0-1.63,0-.26,0-.51,0-.76,0-.5,0-.99,0-1.47,0-.24,0-.47,0-.71,0-.55-.01-1.09-.02-1.62,0-.15,0-.3,0-.44-.01-.67-.02-1.32-.04-1.95,0-.12,0-.24,0-.36-.01-.49-.03-.96-.04-1.41,0-.18-.01-.34-.02-.51-.01-.37-.03-.73-.04-1.07,0-.16-.01-.32-.02-.47-.02-.34-.03-.66-.05-.95,0-.1-.01-.21-.02-.3-.02-.35-.04-.66-.07-.91,0-.02,0-.04,0-.06-.08-.85-.23-1.66-.42-2.46-.06-.26-.15-.5-.23-.75-.12-.4-.22-.82-.37-1.21-.05-.14-.13-.26-.19-.4-.09-.22-.19-.43-.29-.64-.25-.53-.54-1.03-.85-1.53-.12-.19-.23-.38-.36-.56-.06-.09-.11-.19-.18-.27-.42-.56-.88-1.1-1.39-1.62l-11.04-11.08c.59.6,1.11,1.23,1.57,1.89.13.18.24.37.36.56.32.5.6,1.01.85,1.53.1.21.2.42.29.64.22.52.39,1.06.55,1.6.07.25.17.5.23.75.19.8.34,1.62.42,2.46.02.26.05.59.07.97,0,.1.01.23.02.34.02.28.03.57.05.89,0,.01,0,.02,0,.03l-8.03-8.06c-1.43-1.43-3.36-2.38-5.73-2.75-2.45-.37-8.34-.54-14.19-.54s-11.28.15-13.75.42c-.68.08-1.33.22-1.95.39-.2.06-.38.13-.57.2-.41.14-.81.29-1.18.47-.21.1-.4.21-.59.32-.34.19-.66.39-.96.62-.18.13-.36.27-.52.41-.3.25-.57.53-.83.82-.1.11-.22.19-.31.3-.04.05-.07.11-.11.16-.16.21-.3.44-.45.66-.11.17-.25.33-.35.51-.04.06-.06.14-.09.2-.1.18-.18.38-.26.57-.09.2-.19.38-.27.58-.04.1-.06.22-.1.32-.08.22-.14.46-.21.69-.05.18-.12.34-.16.53-.06.26-.11.53-.15.8-.05.32-.1.69-.14,1.1-.01.14-.03.31-.04.46-.02.26-.05.51-.07.8,0,.04,0,.08,0,.12-.01.14-.02.3-.03.44-.02.35-.05.72-.07,1.1-.01.19-.02.39-.03.59-.02.37-.04.75-.05,1.15,0,.22-.02.43-.03.66-.02.42-.03.85-.04,1.29,0,.2-.01.4-.02.6-.02.64-.03,1.3-.05,1.96,0,.12,0,.24,0,.36-.01.56-.02,1.12-.03,1.69,0,.25,0,.5,0,.75,0,.44,0,.88-.01,1.33,0,.27,0,.54,0,.82,0,.45,0,.9,0,1.34,0,.24,0,.48,0,.71,0,.58,0,1.16.01,1.73,0,.09,0,.18,0,.27,0,.66.02,1.3.03,1.92,0,.17,0,.33.01.5,0,.45.02.89.03,1.31,0,.2.01.39.02.58.01.37.03.73.04,1.08,0,.18.01.36.02.54.02.36.03.7.05,1.02,0,.12.01.25.02.36.03.4.05.78.08,1.1,0,0,0,.01,0,.02.03.37.07.7.11.95.12.78.33,1.5.57,2.18.03.09.04.19.07.27.03.07.08.12.1.19.28.68.62,1.32,1.03,1.9.02.03.03.06.05.09.25.33.51.64.81.94l8.09,8.13c-2-.13-3.6-.31-4.49-.54-.75-.19-1.47-.42-2.15-.69-2.04-.79-3.76-1.88-5.15-3.28h0s0,0,0,0l11.04,11.08Zm41.03-45.48c0,.14.01.27.02.41,0,.19.01.38.02.57.01.41.02.85.04,1.3,0,.16,0,.31.01.47,0,.4.02.84.03,1.26l-5.01-5.03c.85.06,1.6.13,2.14.22,1.01.16,1.91.44,2.76.8Zm-11.46-1.28c-.06.03-.1.08-.16.11-.05.02-.11.04-.16.06-.38.15-.79.25-1.23.25-.59,0-1.11-.2-1.58-.46,1.07,0,2.12.02,3.13.04Zm-5.49-.05c.7,0,1.4,0,2.09,0l10.5,10.54c.61.61,1.45.99,2.38,1,.43,0,.84-.1,1.23-.25.05-.02.11-.03.16-.06.27-.12.52-.26.75-.44,0,.07,0,.14,0,.21,0,.51,0,1.03,0,1.55,0,.23,0,.46,0,.69,0,.73-.01,1.46-.02,2.19,0,.14,0,.29,0,.43-.01.59-.02,1.17-.04,1.75,0,.24-.01.47-.02.71-.01.48-.03.96-.05,1.42,0,.24-.02.48-.03.72-.02.48-.04.94-.07,1.4-.01.19-.02.39-.03.58-.04.62-.07,1.23-.12,1.79,0,.06,0,.1-.01.16-.04.49-.08.95-.13,1.39-.01.12-.03.24-.04.35-.05.46-.11.89-.17,1.27,0,.04-.01.07-.02.11-.07.39-.14.74-.21,1.03-.2.73-.44,1.41-.7,2.07-.19.49-.42.95-.65,1.4-.13.25-.24.52-.37.76-.4.7-.84,1.36-1.33,1.96-.07.09-.16.16-.23.25-.45.53-.94,1.03-1.47,1.48-.2.17-.42.32-.63.48-.44.33-.9.64-1.38.93-.25.15-.51.29-.77.42-.52.26-1.06.49-1.62.69-.25.09-.5.2-.76.28-.84.26-1.71.48-2.64.63-2.45.39-9.06.63-15.66.63-3.65,0-7.27-.08-10.21-.24,0,0-.01-.02-.01-.03-.06-.15-.12-.31-.18-.46-.24-.69-.45-1.4-.57-2.18-.04-.25-.08-.58-.11-.95-.03-.33-.06-.71-.09-1.13,0-.12-.01-.25-.02-.37-.02-.32-.04-.65-.05-1,0-.18-.02-.37-.02-.56-.01-.34-.03-.69-.04-1.05,0-.2-.01-.4-.02-.61-.01-.39-.02-.81-.03-1.22,0-.2,0-.39-.01-.59-.01-.61-.02-1.23-.03-1.87,0-.14,0-.28,0-.42,0-.53,0-1.06-.01-1.61,0-.23,0-.47,0-.7,0-.46,0-.92,0-1.39,0-.25,0-.49,0-.74,0-.48,0-.96.01-1.44,0-.22,0-.44,0-.66,0-.58.02-1.16.03-1.73,0-.11,0-.23,0-.34.01-.67.03-1.33.05-1.98,0-.18.01-.35.02-.52.01-.47.03-.93.05-1.38,0-.21.02-.41.02-.61.02-.4.04-.8.05-1.18,0-.19.02-.39.03-.58.02-.4.05-.77.07-1.14,0-.13.02-.28.03-.41.03-.34.05-.64.08-.95.01-.14.03-.31.04-.44.04-.41.09-.79.14-1.1.07-.46.19-.9.31-1.33.06-.23.13-.47.21-.69.11-.31.23-.61.37-.9.09-.19.17-.39.26-.57.13-.25.29-.48.44-.71.14-.22.28-.45.45-.66.13-.17.28-.31.42-.47.26-.29.53-.57.83-.82.17-.14.35-.28.52-.41.3-.22.63-.43.96-.62.19-.11.39-.22.59-.32.38-.18.78-.33,1.18-.47.19-.06.37-.14.57-.2.62-.17,1.27-.31,1.95-.39,2.48-.27,8.1-.42,13.75-.42Z"/>
        <path class="cls-1" d="m56.25,31.82s.03,0,.04,0c1.87,0,3.39,1.53,3.37,3.42-.01,1.87-1.55,3.4-3.45,3.4-1.89-.02-3.39-1.55-3.37-3.42.01-1.88,1.53-3.4,3.4-3.4Z"/>
        <path class="cls-1" d="m69.04,36.2c.42,4.47.69,25.58-.62,30.53-1.76,6.47-5.98,10.3-12.53,11.35-2.45.39-9.06.63-15.66.63s-13.51-.25-15.78-.84c-6.44-1.66-10.28-5.86-11.3-12.38-.76-4.79-.84-27.04.54-31.87,1.8-6.29,6-9.99,12.37-11.03,2.89-.47,8.53-.64,14.23-.64,5.3,0,10.65.14,13.86.32,3.9.21,7.47,1.46,10.36,4.24,2.76,2.64,4.17,5.95,4.53,9.69Zm-5.46,28.36c.81-4.99.82-23.21.35-27.88-.51-4.99-3.56-8.28-8.5-9.05-2.45-.37-8.34-.54-14.19-.54s-11.28.15-13.75.42c-4.95.57-8.28,3.62-9.07,8.55-.81,5.22-.8,24.74-.2,28.66.63,4.08,2.93,6.89,7.01,8.02,2.2.62,8.8.84,15.27.84,5.96,0,11.8-.19,14-.43,5-.55,8.3-3.62,9.09-8.59"/>
        <path class="cls-1" d="m41.12,35.79c8.02,0,14.5,6.52,14.43,14.57-.06,8.02-6.63,14.54-14.68,14.54s-14.5-6.52-14.43-14.57c.06-8.05,6.63-14.57,14.68-14.55Zm-.21,23.96c5.16,0,9.41-4.16,9.49-9.32.09-5.22-4.05-9.46-9.25-9.51-.03,0-.06,0-.08,0-5.16,0-9.41,4.16-9.49,9.32-.09,5.2,4.05,9.46,9.25,9.51.03,0,.06,0,.08,0"/>
      </g>
    </g>
  </g>
</svg>