<?xml version="1.0" encoding="UTF-8"?>
<svg xmlns="http://www.w3.org/2000/svg" viewBox="0 0 93.03 108.92">
  <defs>
    <style>
      .cls-1 {
        isolation: isolate;
      }

      .cls-2 {
        fill: #fff;
        stroke: #fff;
      }

      .cls-2, .cls-3 {
        stroke-miterlimit: 10;
        stroke-width: 2px;
      }

      .cls-3 {
        stroke: #ccc;
      }

      .cls-3, .cls-4 {
        fill: #ccc;
        mix-blend-mode: multiply;
      }
    </style>
  </defs>
  <g class="cls-1">
    <g id="Capa_1" data-name="Capa 1">
      <g>
        <path class="cls-4" d="m70.93,37.76c-.29-.27-.59-.53-.89-.79-.29-.27-.59-.53-.89-.79-.29-.27-.59-.53-.89-.79-.29-.27-.59-.53-.89-.79-.29-.27-.59-.53-.89-.79-.29-.27-.59-.53-.89-.79-.29-.27-.59-.53-.89-.79-.29-.27-.59-.53-.89-.79-.29-.27-.59-.53-.89-.79-.29-.27-.59-.53-.89-.79-.29-.27-.59-.53-.89-.79-.29-.27-.59-.53-.89-.79-5.13-4.75-11.98-7.66-19.5-7.66-15.84,0-28.72,12.88-28.72,28.72,0,8.74,3.93,16.58,10.11,21.85.29.27.59.53.89.79.29.27.59.53.89.79.29.27.59.53.89.79.29.27.59.53.89.79.29.27.59.53.89.79.29.27.59.53.89.79.29.27.59.53.89.79.29.27.59.53.89.79.29.27.59.53.89.79.29.27.59.53.89.79.29.27.59.53.89.79.29.27.59.53.89.79,5.13,4.75,11.98,7.66,19.5,7.66,15.84,0,28.72-12.88,28.72-28.72,0-8.74-3.93-16.58-10.11-21.85Zm-43.13,21.85c0-13.52,11-24.53,24.53-24.53,3.41,0,6.65.7,9.6,1.96,2.1,3.61,3.31,7.8,3.31,12.27,0,13.52-11,24.53-24.53,24.53-3.41,0-6.65-.7-9.6-1.96-2.1-3.61-3.31-7.8-3.31-12.27Z"/>
        <path class="cls-3" d="m59.77,62.01c-.08-.17-.19-.33-.31-.48-.08-.17-.19-.33-.31-.48-.08-.17-.19-.33-.31-.48-.08-.17-.19-.33-.31-.48-.08-.17-.19-.33-.31-.48-.08-.17-.19-.33-.31-.48-.08-.17-.19-.33-.31-.48-.08-.17-.19-.33-.31-.48-.08-.17-.19-.33-.31-.48-.08-.17-.19-.33-.31-.48-.08-.17-.19-.33-.31-.48-.08-.17-.19-.33-.31-.48-.08-.17-.19-.33-.31-.48-.08-.17-.19-.33-.31-.48-.08-.17-.19-.33-.31-.48-.08-.17-.19-.33-.31-.48-.08-.17-.19-.33-.31-.48-.08-.17-.19-.33-.31-.48-.08-.17-.19-.33-.31-.48-.08-.17-.19-.33-.31-.48-.08-.17-.19-.33-.31-.48-.08-.17-.19-.33-.31-.48-.08-.17-.19-.33-.31-.48-.08-.17-.19-.33-.31-.48-.33-.73-1.06-1.23-1.9-1.23h-1.4v-.64c0-.51-.19-.98-.5-1.34-.08-.17-.19-.33-.31-.48-.08-.17-.19-.33-.31-.48-.08-.17-.19-.33-.31-.48-.08-.17-.19-.33-.31-.48-.08-.17-.19-.33-.31-.48-.08-.17-.19-.33-.31-.48-.08-.17-.19-.33-.31-.48-.08-.17-.19-.33-.31-.48-.08-.17-.19-.33-.31-.48-.08-.17-.19-.33-.31-.48-.08-.17-.19-.33-.31-.48-.08-.17-.19-.33-.31-.48-.08-.17-.19-.33-.31-.48-.08-.17-.19-.33-.31-.48-.08-.17-.19-.33-.31-.48-.08-.17-.19-.33-.31-.48-.08-.17-.19-.33-.31-.48-.08-.17-.19-.33-.31-.48-.08-.17-.19-.33-.31-.48-.08-.17-.19-.33-.31-.48-.08-.17-.19-.33-.31-.48-.08-.17-.19-.33-.31-.48-.08-.17-.19-.33-.31-.48-.08-.17-.19-.33-.31-.48-.33-.72-1.06-1.23-1.9-1.23-1.16,0-2.1.94-2.1,2.1v14.67c0,.51.19.98.5,1.34.08.17.19.33.31.48.08.17.19.33.31.48.08.17.19.33.31.48.08.17.19.33.31.48.08.17.19.33.31.48.08.17.19.33.31.48.08.17.19.33.31.48.08.17.19.33.31.48.08.17.19.33.31.48.08.17.19.33.31.48.08.17.19.33.31.48.08.17.19.33.31.48.08.17.19.33.31.48.08.17.19.33.31.48.08.17.19.33.31.48.08.17.19.33.31.48.08.17.19.33.31.48.08.17.19.33.31.48.08.17.19.33.31.48.08.17.19.33.31.48.08.17.19.33.31.48.08.17.19.33.31.48.08.17.19.33.31.48.08.17.19.33.31.48.33.72,1.06,1.23,1.9,1.23h11.18c1.16,0,2.1-.94,2.1-2.1,0-.51-.19-.98-.5-1.34Z"/>
        <path class="cls-2" d="m40.95,20.6c-15.84,0-28.72,12.88-28.72,28.72s12.88,28.72,28.72,28.72,28.72-12.88,28.72-28.72-12.88-28.72-28.72-28.72Zm0,53.25c-13.52,0-24.53-11-24.53-24.53s11-24.53,24.53-24.53,24.53,11,24.53,24.53-11,24.53-24.53,24.53Z"/>
        <path class="cls-2" d="m50.49,49.32h-9.08v-12.58c0-1.16-.94-2.1-2.1-2.1s-2.1.94-2.1,2.1v14.67c0,1.16.94,2.1,2.1,2.1h11.18c1.16,0,2.1-.94,2.1-2.1s-.94-2.1-2.1-2.1Z"/>
      </g>
    </g>
  </g>
</svg>