<?xml version="1.0" encoding="UTF-8"?>
<svg xmlns="http://www.w3.org/2000/svg" viewBox="0 0 93.03 108.92">
  <defs>
    <style>
      .cls-1 {
        fill: #fff;
      }

      .cls-2 {
        isolation: isolate;
      }

      .cls-3 {
        fill: #ccc;
        mix-blend-mode: multiply;
      }
    </style>
  </defs>
  <g class="cls-2">
    <g id="Capa_1" data-name="Capa 1">
      <g>
        <path class="cls-3" d="m81.99,44.79c-.36-3.79-1.8-7.15-4.6-9.83-.07-.07-.15-.13-.22-.19-.04-.04-.08-.09-.12-.13-.07-.07-.15-.13-.22-.19-.04-.04-.08-.09-.12-.13-.07-.07-.15-.13-.22-.19-.04-.04-.08-.09-.12-.13-.07-.07-.15-.13-.22-.19-.04-.04-.08-.09-.12-.13-.07-.07-.15-.13-.22-.19-.04-.04-.08-.09-.12-.13-.07-.07-.15-.13-.22-.19-.04-.04-.08-.09-.12-.13-.07-.07-.15-.13-.22-.19-.04-.04-.08-.09-.12-.13-.07-.07-.15-.13-.22-.19-.04-.04-.08-.09-.12-.13-.07-.07-.15-.13-.22-.19-.04-.04-.08-.09-.12-.13-.07-.07-.15-.13-.22-.19-.04-.04-.08-.09-.12-.13-.07-.07-.15-.13-.22-.19-.04-.04-.08-.09-.12-.13-.07-.07-.15-.13-.22-.19-.04-.04-.08-.09-.12-.13-.07-.07-.15-.13-.22-.19-.04-.04-.08-.09-.12-.13-.07-.07-.15-.13-.22-.19-.04-.04-.08-.09-.12-.13-.07-.07-.15-.13-.22-.19-.04-.04-.08-.09-.12-.13-.07-.07-.15-.13-.22-.19-.04-.04-.08-.09-.12-.13-.07-.07-.15-.13-.22-.19-.04-.04-.08-.09-.12-.13-.07-.07-.15-.13-.22-.19-.04-.04-.08-.09-.12-.13-.07-.07-.15-.13-.22-.19-.04-.04-.08-.09-.12-.13-.07-.07-.15-.13-.22-.19-.04-.04-.08-.09-.12-.13-.07-.07-.15-.13-.22-.19-.04-.04-.08-.09-.12-.13-.07-.07-.15-.13-.22-.19-.04-.04-.08-.09-.12-.13-.07-.07-.15-.13-.22-.19-.04-.04-.08-.09-.12-.13-.07-.07-.15-.13-.22-.19-.04-.04-.08-.09-.12-.13-.07-.07-.15-.13-.22-.19-.04-.04-.08-.09-.12-.13-.07-.07-.15-.13-.22-.19-.04-.04-.08-.09-.12-.13-.07-.07-.15-.13-.22-.19-.04-.04-.08-.09-.12-.13-.07-.07-.15-.13-.22-.19-.04-.04-.08-.09-.12-.13-.07-.07-.15-.13-.22-.19-.04-.04-.08-.09-.12-.13-.07-.07-.15-.13-.22-.19-.04-.04-.08-.09-.12-.13-.07-.07-.15-.13-.22-.19-.04-.04-.08-.09-.12-.13-.07-.07-.15-.13-.22-.19-.04-.04-.08-.09-.12-.13-.07-.07-.15-.13-.22-.19-.04-.04-.08-.09-.12-.13-.07-.07-.15-.13-.22-.19-.04-.04-.08-.09-.12-.13-.07-.07-.15-.13-.22-.19-.04-.04-.08-.09-.12-.13-2.94-2.82-6.56-4.1-10.52-4.3-3.27-.18-8.69-.32-14.07-.32-5.78,0-11.51.17-14.44.65-6.46,1.06-10.72,4.81-12.55,11.2-1.4,4.9-1.32,27.48-.55,32.34.6,3.81,2.15,6.83,4.6,9.03.11.11.23.22.34.32.11.11.23.22.34.32.11.11.23.22.34.32.11.11.23.22.34.32.11.11.23.22.34.32.11.11.23.22.34.32.11.11.23.22.34.32.11.11.23.22.34.32.11.11.23.22.34.32.11.11.23.22.34.32.11.11.23.22.34.32.11.11.23.22.34.32.11.11.23.22.34.32.11.11.23.22.34.32.11.11.23.22.34.32.11.11.23.22.34.32.11.11.23.22.34.32.11.11.23.22.34.32.11.11.23.22.34.32.11.11.23.22.34.32.11.11.23.22.34.32.11.11.23.22.34.32.11.11.23.22.34.32.11.11.23.22.34.32.11.11.23.22.34.32.11.11.23.22.34.32.11.11.23.22.34.32.11.11.23.22.34.32.11.11.23.22.34.32.11.11.23.22.34.32.11.11.23.22.34.32.11.11.23.22.34.32.11.11.23.22.34.32.11.11.23.22.34.32,1.86,1.79,4.27,3.09,7.22,3.85,2.3.6,9.15.85,16.01.85s13.41-.24,15.89-.64c6.65-1.06,10.93-4.95,12.72-11.52,1.33-5.02,1.06-26.44.63-30.98Zm-17.57,17.54c-.8,5.04-4.16,8.17-9.23,8.72-.69.08-1.74.15-3.04.21l.02-2.41h6.07c.34-2.38.66-4.74,1-7.21h-.39c.02-.11.03-.21.04-.32-.14,0-.26,0-.39,0,.02-.11.03-.21.04-.32-.14,0-.26,0-.39,0,.02-.11.03-.21.04-.32-.14,0-.26,0-.39,0,.02-.11.03-.21.04-.32-.14,0-.26,0-.39,0,.02-.11.03-.21.04-.32-.14,0-.26,0-.39,0,.02-.11.03-.21.04-.32-.14,0-.26,0-.39,0,.02-.11.03-.21.04-.32-.14,0-.26,0-.39,0,.02-.11.03-.21.04-.32-.14,0-.26,0-.39,0,.02-.11.03-.21.04-.32-.14,0-.26,0-.39,0,.02-.11.03-.21.04-.32-.14,0-.26,0-.39,0,.02-.11.03-.21.04-.32-.14,0-.26,0-.39,0,.02-.11.03-.21.04-.32-.14,0-.26,0-.39,0,.02-.11.03-.21.04-.32-.14,0-.26,0-.39,0,.02-.11.03-.21.04-.32-.14,0-.26,0-.39,0,.02-.11.03-.21.04-.32-.14,0-.26,0-.39,0,.02-.11.03-.21.04-.32-.14,0-.26,0-.39,0,.02-.11.03-.21.04-.32-.14,0-.26,0-.39,0,.02-.11.03-.21.04-.32-.14,0-.26,0-.39,0,.02-.11.03-.21.04-.32h-.28c.4-1.3,1.48-1.75,2.86-1.8.53-.02,1.06-.02,1.58-.02.7,0,1.41,0,2.11,0h.51l.05-6.41c-.11-.01-.23-.03-.35-.04v-.28c-.11-.01-.23-.03-.34-.04v-.28c-.11-.01-.23-.03-.34-.04v-.28c-.11-.01-.23-.03-.34-.04v-.28c-.11-.01-.23-.03-.34-.04v-.28c-.11-.01-.23-.03-.34-.04v-.28c-.11-.01-.23-.03-.34-.04v-.28c-.11-.01-.23-.03-.34-.04v-.28c-.11-.01-.23-.03-.34-.04v-.28c-.11-.01-.23-.03-.34-.04v-.28c-.11-.01-.23-.03-.34-.04v-.28c-.11-.01-.23-.03-.34-.04v-.28c-.11-.01-.23-.03-.34-.04v-.28c-.11-.01-.23-.03-.34-.04v-.28c-.11-.01-.23-.03-.34-.04v-.28c-.11-.01-.23-.03-.34-.04v-.28c-.11-.01-.23-.03-.34-.04v-.28c-.11-.01-.23-.03-.34-.04v-.28c-.11-.01-.23-.03-.34-.04v-.28c-.11-.01-.23-.03-.34-.04v-.28c-.11-.01-.23-.03-.34-.04v-.28c-.11-.01-.23-.03-.34-.04v-.28c-.11-.01-.23-.03-.34-.04v-.28c-.11-.01-.23-.03-.34-.04v-.28c-.11-.01-.23-.03-.34-.04v-.28c-.11-.01-.23-.03-.34-.04v-.28c-.11-.01-.23-.03-.34-.04v-.28c-.11-.01-.23-.03-.34-.04v-.28c-.11-.01-.23-.03-.34-.04v-.28c-.11-.01-.23-.03-.34-.04v-.28c-.11-.01-.23-.03-.34-.04v-.28c-.11-.01-.23-.03-.34-.04v-.28c-.11-.01-.23-.03-.34-.04v-.28c-.11-.01-.23-.03-.34-.04v-.28c-.11-.01-.23-.03-.34-.04v-.28c-.65-.07-1.34-.17-2.04-.2-.9-.04-1.82-.08-2.73-.1,2.91-.14,6.95-.22,11.01-.22s8.16.08,11.13.25c.34,6.47.27,21.96-.48,26.53Zm-28.1-24.89c-1.84,1.32-2.86,3.16-3.27,5.35-.16.91-.21,1.84-.23,2.75-.05,1.44-.04,2.89-.05,4.33v.54h-2.6c.1-2.45.25-4.51.45-5.75.79-4.9,4.05-7.97,8.92-8.63-1.14.25-2.22.71-3.21,1.42Zm-6.35,23.02h.05v.32s.34,0,.34,0v.32s.34,0,.34,0v.32s.34,0,.34,0v.32s.34,0,.34,0v.32s.34,0,.34,0v.32s.34,0,.34,0v.32s.34,0,.34,0v.32s.21,0,.21,0l-.06,8.3c-.84-.03-1.64-.07-2.38-.12-.15-2.65-.23-6.62-.22-10.75Z"/>
        <path class="cls-1" d="m69.96,33.54c-.36-3.79-1.8-7.15-4.6-9.83-2.94-2.82-6.56-4.1-10.52-4.3-3.27-.18-8.69-.32-14.07-.32-5.78,0-11.51.17-14.44.65-6.46,1.06-10.72,4.81-12.55,11.2-1.4,4.9-1.32,27.48-.55,32.34,1.04,6.62,4.94,10.87,11.47,12.56,2.3.6,9.15.85,16.01.85s13.41-.24,15.89-.64c6.65-1.06,10.93-4.95,12.72-11.52,1.33-5.02,1.06-26.44.63-30.98Zm-5.54,28.78c-.8,5.04-4.16,8.17-9.23,8.72-2.23.24-8.16.43-14.21.43-.32,0-.63,0-.95,0l.11-13.88h6.07c.34-2.38.66-4.74,1-7.21h-1.37c-.58,0-1.4,0-2.25,0-1.69,0-3.37,0-3.46,0,0-.18.04-3.55.1-5.08.09-2.12,1.34-2.76,3.04-2.82.53-.02,1.06-.02,1.58-.02.7,0,1.41,0,2.11,0h.51l.05-6.41c-.65-.07-1.34-.17-2.04-.2-1.06-.05-2.13-.11-3.2-.11-.2,0-.4,0-.59,0-1.94.04-3.77.52-5.38,1.67-1.84,1.32-2.86,3.16-3.27,5.35-.16.91-.21,1.84-.23,2.75-.05,1.44-.04,2.89-.05,4.33v.54h-6.13l-.05,7.16h6.1l-.11,13.77c-3.21-.13-5.84-.35-7.08-.7-4.13-1.16-6.47-4-7.11-8.14-.62-3.98-.63-23.78.2-29.08.8-5,4.18-8.1,9.2-8.68,2.51-.27,8.22-.43,13.96-.43s11.92.17,14.4.54c5.01.79,8.11,4.12,8.63,9.18.47,4.74.47,23.23-.35,28.29Z"/>
      </g>
    </g>
  </g>
</svg>