<?xml version="1.0" encoding="UTF-8"?>
<svg xmlns="http://www.w3.org/2000/svg" viewBox="0 0 93.03 108.92">
  <defs>
    <style>
      .cls-1 {
        fill: #fff;
      }

      .cls-2 {
        isolation: isolate;
      }

      .cls-3 {
        fill: #ccc;
        mix-blend-mode: multiply;
      }
    </style>
  </defs>
  <g class="cls-2">
    <g id="Capa_1" data-name="Capa 1">
      <g>
        <path class="cls-3" d="m82.87,56.95c-.02-.33-.02-.66-.05-.99,0-.11,0-.22-.02-.34-.08-.83-.19-1.66-.33-2.49-.15-.87-.35-1.72-.58-2.56-.07-.26-.16-.52-.23-.78-.18-.58-.37-1.16-.58-1.73-.05-.14-.09-.29-.14-.43-.04-.1-.1-.19-.14-.29-.43-1.07-.91-2.11-1.45-3.11-.09-.16-.18-.31-.27-.47-.59-1.04-1.22-2.05-1.93-3.01,0,0,0,0,0-.01,0-.01-.02-.02-.03-.03-.87-1.18-1.83-2.29-2.86-3.33l-11.04-11.08c1.03,1.04,1.99,2.15,2.86,3.33.01.01.02.03.03.04.71.96,1.34,1.97,1.93,3.01.09.15.18.31.27.46.54,1,1.03,2.04,1.45,3.11.1.24.19.48.28.72.21.57.4,1.15.58,1.73.08.26.16.52.23.78.23.84.43,1.7.58,2.56.16.95.27,1.89.35,2.83.03.33.03.66.05,1,.03.63.05,1.25.04,1.87,0,.36-.02.72-.04,1.08-.03.64-.08,1.27-.15,1.9-.03.26-.05.51-.09.77-.12.89-.27,1.76-.47,2.63-.01.05-.03.09-.04.14-.19.82-.42,1.62-.68,2.41-.08.24-.16.48-.24.72-.22.62-.46,1.24-.71,1.84-.1.24-.19.47-.3.71-.36.8-.75,1.59-1.18,2.35-.09.16-.2.31-.29.47-.37.63-.75,1.25-1.16,1.84l-9.78-9.82c.08.08.13.15.16.23,0,.01,0,.02,0,.04.02.07.04.14.04.22.02.56-.03,1.08-.13,1.56-.01.05-.01.11-.02.16-.1.45-.24.86-.42,1.25-.03.07-.07.15-.1.22-.2.38-.42.74-.68,1.05-.33.4-.72.75-1.13,1.05-.12.09-.26.16-.39.25-.3.19-.61.37-.93.51-.15.07-.31.13-.47.19-.32.12-.64.22-.96.29-.14.03-.28.07-.41.1-.45.08-.89.13-1.3.13-.15,0-.29,0-.43-.02-4.16-.15-10.07-2.53-15.41-7.89l11.04,11.08c4.37,4.39,9.11,6.75,12.97,7.55-.19.12-.38.25-.57.37-.47.29-.95.56-1.43.83-.35.19-.69.38-1.05.56-.51.26-1.04.49-1.58.72-.35.15-.69.31-1.05.45-.6.23-1.22.43-1.83.62-.31.1-.61.21-.93.3-.94.26-1.9.49-2.89.66-1.77.3-3.53.45-5.26.45-3.52,0-6.95-.63-10.29-1.85.03-.09.05-.18.08-.27.1-.28.18-.55.24-.81.03-.11.03-.22.05-.32.01-.07.02-.14.03-.21,0-.06.02-.13.03-.19.02-.26.02-.51,0-.76,0-.02-.01-.04-.02-.06-.05-.43-.15-.85-.31-1.28,0-.01,0-.03,0-.04-.14-.36-.31-.72-.53-1.1-.53-.96-.99-1.94-1.38-2.92-.09-.23-.15-.46-.23-.69-.29-.81-.56-1.62-.76-2.43-.09-.38-.15-.76-.22-1.14-.13-.67-.26-1.35-.33-2.02-.08-.73-.14-1.46-.16-2.19,0-.09-.01-.17-.01-.26,0-.82.04-1.64.12-2.45.1-1.11.25-2.21.5-3.28,0-.01,0-.03.01-.04.24-1.05.56-2.08.93-3.09.11-.3.25-.59.37-.89.32-.78.68-1.55,1.07-2.29.22-.42.44-.84.69-1.24.15-.24.29-.49.45-.72.38-.59.79-1.16,1.22-1.71.11-.14.21-.3.33-.44.54-.67,1.13-1.32,1.74-1.93.16-.16.33-.31.49-.47.21-.21.45-.39.67-.59.09.23.19.46.27.69h0c.1.26.12.51.09.77,0,.01,0,.03,0,.04-.04.25-.13.52-.28.8,0,.02-.01.03-.02.04-.04.08-.12.17-.17.25-.16.26-.34.52-.58.82-.26.33-.55.67-.9,1.06-.02.03-.05.06-.07.08-.08.1-.14.19-.2.29,0,0,0,.02-.01.03,0,.01,0,.02-.02.03-.02.04-.05.09-.06.13-.02.05-.04.11-.05.16,0,.03,0,.05-.01.08,0,.01,0,.02,0,.03,0,.02,0,.04,0,.05,0,.06,0,.13,0,.19,0,.03.02.07.02.1,0,.05.02.1.04.15.01.04.01.08.03.12.03.08.07.17.12.26.43.74.9,1.45,1.39,2.12.03.03.06.06.08.1.58.78,1.2,1.51,1.88,2.18l11.04,11.08c-.67-.67-1.29-1.41-1.87-2.18-.53-.7-1.02-1.43-1.48-2.22-.07-.13-.12-.25-.15-.38-.02-.05-.03-.1-.04-.15-.02-.12-.03-.23-.02-.35,0-.01,0-.02,0-.03.02-.13.06-.25.12-.38,0-.01,0-.02.01-.03.07-.13.16-.26.28-.4.32-.36.61-.69.86-1,.02-.02.02-.04.04-.06.24-.3.42-.56.58-.82.05-.07.12-.16.16-.23,0,0,0-.02.01-.03,0-.01.01-.03.02-.04.07-.12.13-.25.17-.37.04-.1.07-.2.09-.3.01-.05.01-.09.02-.13,0-.01,0-.03,0-.04,0-.03.01-.05.01-.08,0-.09,0-.18,0-.27-.01-.14-.05-.28-.1-.43h0c-.14-.39-.28-.77-.43-1.16-.09-.24-.2-.48-.3-.73-.53-1.33-1.08-2.66-1.64-3.98-.08-.16-.18-.34-.3-.5-.05-.07-.11-.14-.16-.19l-6.67-6.7c.52-.38,1.05-.76,1.6-1.11.09-.06.18-.12.27-.18.76-.46,1.56-.88,2.38-1.26.23-.11.46-.2.69-.3.64-.27,1.29-.52,1.95-.75.26-.09.51-.18.77-.25.9-.27,1.82-.51,2.77-.68,1.54-.28,3.07-.42,4.57-.42,6.75,0,13.01,2.73,17.57,7.3l-11.04-11.08c-4.55-4.57-10.82-7.3-17.57-7.3-1.51,0-3.03.14-4.57.42-.95.17-1.87.41-2.77.68-.26.08-.52.17-.77.25-.67.22-1.32.47-1.95.75-.23.1-.47.19-.7.3-.82.38-1.62.8-2.38,1.26-.09.06-.18.12-.27.18-.67.42-1.32.87-1.94,1.34-.21.16-.42.33-.62.5-.52.43-1.02.87-1.51,1.33-.16.16-.33.31-.49.47-.58.58-1.13,1.18-1.65,1.82-.03.04-.06.08-.09.12-.11.14-.22.29-.33.44-.43.56-.84,1.12-1.22,1.71-.15.24-.3.48-.45.72-.14.24-.3.47-.44.71-.1.17-.16.36-.25.53-.4.75-.75,1.51-1.07,2.3-.08.21-.2.4-.28.6-.03.09-.05.19-.09.28-.37,1.01-.69,2.04-.93,3.1,0,.01,0,.02-.01.04,0,0,0,0,0,0-.24,1.08-.4,2.18-.5,3.28,0,.1-.04.21-.05.31-.05.71-.08,1.42-.07,2.14,0,.09.01.18.01.27.01.58.03,1.16.09,1.75.01.14.05.29.07.43.07.68.2,1.35.33,2.02.08.38.13.76.22,1.14.2.81.47,1.62.76,2.42.08.21.11.42.2.63.01.03.03.05.04.08.39.99.85,1.96,1.38,2.92.22.39.4.77.53,1.14.16.43.26.85.31,1.28.04.33.03.67,0,1.01,0,.07-.02.14-.03.21-.06.36-.15.74-.29,1.13-.37,1.06-.68,2.14-.97,3.25-.3,1.11-.58,2.26-.92,3.45h0s4.05,4.07,4.05,4.07c-5.84,1.5-9.76,2.58-11.1,2.84l11.04,11.08c1.62-.32,6.92-1.8,14.89-3.81.18-.05.39-.07.6-.07.43,0,.88.09,1.24.27,4.32,2.11,8.81,3.19,13.46,3.19,1.73,0,3.49-.15,5.26-.45.98-.17,1.94-.4,2.89-.66.31-.09.61-.2.92-.3.62-.19,1.24-.39,1.84-.62.35-.14.69-.29,1.04-.44.54-.23,1.07-.46,1.59-.72.35-.18.7-.37,1.04-.56.49-.27.97-.54,1.44-.83.34-.21.67-.43,1-.66.45-.31.89-.62,1.32-.95.32-.24.63-.49.94-.74.42-.35.82-.71,1.22-1.07.29-.27.57-.53.85-.81.39-.39.77-.8,1.14-1.22.25-.28.5-.55.74-.83.07-.09.16-.17.23-.26.3-.37.57-.77.86-1.15.2-.27.41-.53.6-.8.42-.61.81-1.24,1.18-1.88.09-.16.2-.31.29-.48,0-.01.02-.03.03-.04.42-.75.8-1.52,1.15-2.31.11-.23.2-.47.3-.71.15-.35.31-.7.44-1.05.1-.26.18-.53.27-.79.08-.24.17-.48.24-.72.25-.79.49-1.59.68-2.41.01-.05.03-.09.04-.14,0,0,0-.02,0-.03.19-.85.34-1.72.46-2.6.04-.26.06-.51.09-.77.04-.34.09-.68.12-1.02.02-.29.02-.59.03-.88.02-.36.03-.71.04-1.07,0-.62-.01-1.25-.04-1.88Z"/>
        <path class="cls-1" d="m31.69,33.75c.57,0,1.16.1,1.74.2.34.05.66.55.84.91.83,1.94,1.66,3.88,2.37,5.86.4,1.05-.33,2.05-1.88,3.78-.48.55-.58,1.07-.22,1.71,2.43,4.17,5.85,7.18,10.37,8.96.21.08.39.12.57.12.39,0,.71-.19,1.01-.55,1.93-2.33,2.48-3.36,3.27-3.36.2,0,.41.06.66.19,6.04,2.9,6.52,3.01,6.54,3.69.16,4.86-4.07,6.76-6.94,6.76-.15,0-.29,0-.43-.02-5.86-.21-15.17-4.83-21.49-15.96-2.23-3.94-1.87-8.44,1.48-11.54.64-.59,1.37-.77,2.12-.77Z"/>
        <path class="cls-1" d="m71.43,42.05c2.88,16.6-8.09,32.33-24.57,35.22-1.77.3-3.53.45-5.26.45-4.65,0-9.14-1.08-13.46-3.19-.36-.18-.82-.27-1.24-.27-.21,0-.42.02-.6.07-7.97,2.01-13.27,3.49-14.89,3.81.35-1.3.66-2.44.96-3.58,1.03-3.65,2.08-7.27,3.05-10.92.14-.55.1-1.25-.15-1.76-9.12-17.6.59-38.92,20.01-43.48,2.4-.56,4.76-.83,7.06-.83,14.63,0,26.7,10.74,29.1,24.47Zm-25.81,30.39c13.65-2.19,23.07-14.93,21.1-28.52-1.83-12.54-12.43-21.39-24.58-21.39-1.51,0-3.03.14-4.57.42-16.89,3.1-26,21.91-17.72,36.82.92,1.64,1.16,3.01.51,4.76-.75,2.12-1.22,4.31-1.9,6.7,2.99-.78,5.76-1.46,8.5-2.23.26-.07.49-.1.72-.1.46,0,.88.14,1.33.4,3.95,2.29,8.12,3.48,12.53,3.48,1.34,0,2.71-.11,4.09-.33"/>
      </g>
    </g>
  </g>
</svg>