<?xml version="1.0" encoding="UTF-8"?>
<svg id="Capa_1" data-name="Capa 1" xmlns="http://www.w3.org/2000/svg" viewBox="0 0 576.56 422.54">
  <defs>
    <style>
      .cls-1, .cls-2 {
        fill: #fff;
      }

      .cls-3 {
        fill: #b8e1ff;
      }

      .cls-4 {
        fill: #53baed;
      }

      .cls-2 {
        font-family: Poppins-Regular, Poppins;
        font-size: 27.56px;
      }

      .cls-5 {
        fill: #34aef1;
      }

      .cls-6 {
        fill: #80ccf1;
      }
    </style>
  </defs>
  <g>
    <path class="cls-1" d="m92.32,245.04c.06.49.09,1.08.09,1.78v6.31c0,.52-.02,1.05-.05,1.6-.03.55-.08,1.07-.14,1.55-.06.49-.12.82-.18,1.01-.55,0-.95-.06-1.19-.18-1.1-4.76-3.34-8.29-6.72-10.61-3.38-2.32-7.76-3.47-13.12-3.47-3.29,0-6.37.59-9.24,1.78-2.87,1.19-5.35,2.85-7.45,4.98-2.1,2.13-3.75,4.69-4.94,7.68-1.19,2.99-1.78,6.25-1.78,9.78s.65,7.04,1.97,10.33c1.31,3.29,3.14,6.19,5.49,8.69,2.35,2.5,5.12,4.5,8.32,5.99,3.2,1.49,6.69,2.24,10.47,2.24s7.19-.76,10.24-2.29c3.05-1.52,5.64-3.66,7.77-6.4l1.92.55c-1.04,2.2-2.38,4.02-4.02,5.49-1.65,1.46-3.49,2.64-5.53,3.52-2.04.88-4.21,1.49-6.49,1.83-2.29.33-4.59.5-6.9.5-3.96,0-7.86-.66-11.71-1.97-3.84-1.31-7.27-3.19-10.29-5.62-3.02-2.44-5.47-5.38-7.36-8.82-1.89-3.44-2.83-7.3-2.83-11.57s.96-8.51,2.88-12.16c1.92-3.66,4.49-6.8,7.73-9.42,3.23-2.62,6.95-4.63,11.16-6.04,4.21-1.4,8.6-2.1,13.17-2.1,3.72,0,7.12.4,10.2,1.19,3.08.79,5.93,2.07,8.55,3.84Z"/>
    <path class="cls-1" d="m147.97,288.93c2.13,1.77,4.6,3.15,7.41,4.16,2.8,1.01,6.04,1.6,9.69,1.78v1.01c-1.53.3-2.96.59-4.3.87-1.34.27-2.59.41-3.75.41-3.47,0-6.57-.59-9.28-1.78-2.71-1.19-5.14-2.76-7.27-4.71-2.13-1.95-4.09-4.21-5.85-6.77-1.77-2.56-3.42-5.21-4.94-7.96-.31-.49-.87-1.13-1.69-1.92-.82-.79-1.91-1.19-3.25-1.19-.61,0-1.2.02-1.78.05-.58.03-1.14.05-1.69.05h-5.21c-.79,0-1.62-.03-2.47-.09v15.27c0,1.4.12,2.53.37,3.38.24.85.64,1.51,1.19,1.97.55.46,1.25.78,2.1.96.85.18,1.89.31,3.11.37v1.28c-.43.06-.88.09-1.37.09h-18.38c-.49,0-.91-.03-1.28-.09v-1.28c1.04-.06,1.97-.17,2.79-.32.82-.15,1.51-.43,2.06-.82.55-.4.97-.97,1.28-1.74.3-.76.46-1.75.46-2.97v-34.75c0-2.38-.56-3.92-1.69-4.62-1.13-.7-2.76-1.11-4.89-1.24v-1.1c.73-.12,1.29-.18,1.69-.18h22.54c1.95,0,4.16.14,6.63.41,2.47.27,4.8.84,7,1.69,2.2.86,4.04,2.09,5.53,3.7,1.49,1.62,2.24,3.76,2.24,6.45,0,1.65-.26,3.09-.78,4.34-.52,1.25-1.24,2.35-2.15,3.29-.91.95-1.98,1.77-3.2,2.47-1.22.7-2.53,1.27-3.93,1.69,1.77,3.29,3.7,6.52,5.81,9.69,2.1,3.17,4.53,5.88,7.27,8.14Zm-11.71-29.45c0-2.13-.5-3.84-1.51-5.12-1.01-1.28-2.32-2.27-3.93-2.97-1.62-.7-3.43-1.16-5.44-1.37-2.01-.21-3.99-.32-5.94-.32-1.34,0-2.41.03-3.2.09-.79.06-1.39.15-1.78.27-.4.12-.64.31-.73.55-.09.24-.14.58-.14,1.01v18.47c.49,0,.94.02,1.37.05.43.03.88.05,1.37.05h3.2c1.59,0,3.35-.08,5.3-.23,1.95-.15,3.76-.58,5.44-1.28,1.68-.7,3.09-1.77,4.25-3.2,1.16-1.43,1.74-3.43,1.74-5.99Z"/>
    <path class="cls-1" d="m183.79,294.24c2.87,0,5.38-.53,7.55-1.6,2.16-1.07,3.98-2.55,5.44-4.44,1.46-1.89,2.58-4.11,3.34-6.68.76-2.56,1.14-5.3,1.14-8.23v-19.02c0-2.44-.58-4.01-1.74-4.71-1.16-.7-2.77-1.11-4.85-1.24v-1.1c.73-.12,1.29-.18,1.69-.18h14.59c.49,0,.95.03,1.37.09v1.19c-1.16.12-2.16.26-3.02.41-.86.15-1.56.44-2.1.87-.55.43-.95,1.01-1.19,1.74-.24.73-.37,1.71-.37,2.93v17.28c0,8.72-1.94,15.21-5.81,19.48-3.87,4.27-9.8,6.4-17.79,6.4-4.08,0-7.61-.58-10.56-1.74-2.96-1.16-5.41-2.83-7.36-5.03-1.95-2.2-3.4-4.83-4.34-7.91-.95-3.08-1.42-6.54-1.42-10.38v-18.11c0-2.44-.58-4.01-1.74-4.71-1.16-.7-2.77-1.11-4.85-1.24v-1.1c.73-.12,1.29-.18,1.69-.18h18.24c.49,0,.94.03,1.37.09v1.19c-1.16.12-2.16.26-3.02.41-.85.15-1.55.44-2.1.87-.55.43-.96,1.01-1.24,1.74-.27.73-.41,1.71-.41,2.93v18.47c0,2.93.35,5.69,1.05,8.28.7,2.59,1.75,4.86,3.15,6.81,1.4,1.95,3.2,3.51,5.39,4.66,2.2,1.16,4.82,1.74,7.86,1.74Z"/>
    <path class="cls-1" d="m259.6,295.97c-.49.12-1.05.18-1.69.18h-39.46c-.85,0-1.8-.01-2.84-.05-1.04-.03-2.13-.11-3.29-.23.3-.67.67-1.31,1.1-1.92.43-.61,1.08-1.48,1.97-2.61.88-1.13,2.15-2.65,3.79-4.57,1.65-1.92,3.89-4.47,6.72-7.64,2.83-3.17,6.39-7.1,10.65-11.8,4.27-4.69,9.45-10.42,15.55-17.19h-22.95c-3.05,0-5.56.88-7.54,2.65-1.98,1.77-3.37,4.08-4.16,6.95l-1.83-.64c0-1.59.15-3.49.46-5.72.3-2.23.76-4.31,1.37-6.26.3-.12.56-.18.78-.18h1.1c.21,0,.41.03.59.09h39.5c1.28,0,2.29.06,3.02.18.06.12.09.32.09.59v.59c-.31.73-.79,1.55-1.46,2.47-.67.91-1.34,1.71-2.01,2.38l-36.03,39.87h24.69c2.62,0,4.66-.29,6.13-.87,1.46-.58,2.62-1.63,3.47-3.15.18-.37.43-.85.73-1.46.3-.61.59-1.22.87-1.83.27-.61.53-1.19.78-1.74.24-.55.43-1.01.55-1.37l1.56.64c-.12,1.95-.32,4.04-.59,6.26-.27,2.23-.72,4.31-1.33,6.26l-.27.09Z"/>
    <path class="cls-1" d="m365.06,265.52v-15.09c0-1.59-.15-2.87-.46-3.84-.31-.97-.76-1.72-1.37-2.24-.61-.52-1.37-.88-2.29-1.1-.91-.21-1.98-.35-3.2-.41v-1.19c.43-.06.85-.09,1.28-.09h19.94c.43,0,.88.03,1.37.09v1.19c-1.28.12-2.39.27-3.34.46s-1.72.5-2.33.96c-.61.46-1.07,1.1-1.37,1.92-.31.82-.46,1.94-.46,3.34v38.68c0,1.4.15,2.52.46,3.34.3.82.76,1.46,1.37,1.92.61.46,1.39.79,2.33,1.01.95.21,2.06.35,3.34.41v1.19c-.49.06-.95.09-1.37.09h-19.94c-.43,0-.85-.03-1.28-.09v-1.19c1.16-.06,2.19-.18,3.11-.37.91-.18,1.68-.5,2.29-.96.61-.46,1.08-1.11,1.42-1.97.33-.85.5-1.98.5-3.38v-19.2h-38.32v18.29c0,1.59.14,2.85.41,3.79.27.95.7,1.68,1.28,2.2.58.52,1.34.88,2.29,1.1.94.21,2.12.38,3.52.5v1.19c-.49.06-.95.09-1.37.09h-19.94c-.43,0-.86-.03-1.28-.09v-1.19c1.16-.06,2.18-.18,3.06-.37.88-.18,1.63-.5,2.24-.96.61-.46,1.08-1.11,1.42-1.97.33-.85.53-1.98.59-3.38v-38.68c0-1.4-.17-2.53-.5-3.38-.34-.85-.81-1.51-1.42-1.97-.61-.46-1.37-.78-2.29-.96-.91-.18-1.95-.3-3.11-.37v-1.19c.43-.06.85-.09,1.28-.09h19.94c.43,0,.88.03,1.37.09v1.19c-1.4.12-2.58.29-3.52.5-.95.21-1.71.58-2.29,1.1-.58.52-1.01,1.25-1.28,2.2-.27.95-.41,2.21-.41,3.79v15.09h38.32Z"/>
    <path class="cls-1" d="m398.76,288.93c0,1.22.12,2.2.37,2.93.24.73.64,1.31,1.19,1.74.55.43,1.25.72,2.1.87.85.15,1.86.26,3.02.32v1.28c-.43.06-.88.09-1.37.09h-18.29c-.49,0-.91-.03-1.28-.09v-1.28c1.04-.06,1.97-.17,2.79-.32.82-.15,1.51-.43,2.06-.82.55-.4.97-.97,1.28-1.74.3-.76.46-1.75.46-2.97v-33.93c0-2.74-.53-4.51-1.6-5.3-1.07-.79-2.73-1.25-4.98-1.37v-1.1c.73-.12,1.29-.18,1.69-.18h17.88c.49,0,.94.03,1.37.09v1.19c-1.22.12-2.26.27-3.11.46-.85.18-1.54.5-2.06.96-.52.46-.9,1.1-1.14,1.92-.24.82-.37,1.94-.37,3.34v33.93Z"/>
    <path class="cls-1" d="m425.8,286.55c0,2.68-.23,5.43-.69,8.23-.46,2.8-1.31,5.46-2.56,7.96-1.25,2.5-3,4.72-5.26,6.68-2.26,1.95-5.15,3.41-8.69,4.39v-1.1c2.93-1.95,5.23-4.57,6.9-7.86,1.68-3.29,2.52-7.04,2.52-11.25v-39.32c0-2.44-.58-4.01-1.74-4.71-1.16-.7-2.77-1.11-4.85-1.24v-1.1c.73-.12,1.29-.18,1.69-.18h17.88c.49,0,.94.03,1.37.09v1.19c-1.16.12-2.15.26-2.97.41-.82.15-1.51.43-2.06.82-.55.4-.95.95-1.19,1.65-.24.7-.37,1.63-.37,2.79v32.56Z"/>
    <path class="cls-1" d="m432.38,272.38c0-4.02.88-7.7,2.65-11.02,1.77-3.32,4.11-6.14,7.04-8.46,2.93-2.32,6.29-4.11,10.1-5.39,3.81-1.28,7.79-1.92,11.93-1.92,3.72,0,7.35.58,10.88,1.74,3.54,1.16,6.71,2.8,9.51,4.94,2.8,2.13,5.06,4.74,6.77,7.82,1.71,3.08,2.56,6.57,2.56,10.47,0,4.21-.93,7.97-2.79,11.29-1.86,3.32-4.31,6.14-7.36,8.46-3.05,2.32-6.49,4.1-10.33,5.35-3.84,1.25-7.74,1.88-11.7,1.88-3.6,0-7.13-.59-10.61-1.78-3.47-1.19-6.6-2.88-9.37-5.08-2.77-2.2-5.02-4.83-6.72-7.91-1.71-3.08-2.56-6.54-2.56-10.38Zm29.45-23.87c-2.93,0-5.64.53-8.14,1.6-2.5,1.07-4.66,2.55-6.49,4.43-1.83,1.89-3.28,4.18-4.34,6.86-1.07,2.68-1.6,5.61-1.6,8.78s.58,6.22,1.74,9.14c1.16,2.93,2.76,5.52,4.8,7.77,2.04,2.26,4.48,4.05,7.32,5.39,2.84,1.34,5.93,2.01,9.28,2.01,2.99,0,5.75-.58,8.28-1.74,2.53-1.16,4.71-2.73,6.54-4.71,1.83-1.98,3.25-4.3,4.25-6.95,1.01-2.65,1.51-5.5,1.51-8.55,0-3.23-.54-6.29-1.6-9.19-1.07-2.9-2.61-5.44-4.62-7.64s-4.45-3.95-7.32-5.26c-2.87-1.31-6.07-1.97-9.6-1.97Z"/>
    <path class="cls-1" d="m537.62,282.53c0,2.74-.66,5.06-1.97,6.95-1.31,1.89-2.99,3.43-5.03,4.62-2.04,1.19-4.33,2.04-6.86,2.56-2.53.52-4.98.78-7.36.78-.85,0-1.74-.06-2.65-.18-.91-.12-1.94-.27-3.06-.46-1.13-.18-2.47-.38-4.02-.59-1.56-.21-3.4-.41-5.53-.59h-1.01c-.91,0-1.45-.2-1.6-.59-.15-.4-.23-1.2-.23-2.42v-3.66c0-.97.01-1.92.05-2.84.03-.91.06-1.74.09-2.47.03-.73.11-1.25.23-1.56.3,0,.58.02.82.05.24.03.49.11.73.23.49,2.2,1.07,4.07,1.74,5.62.67,1.55,1.62,2.82,2.84,3.79,1.22.98,2.77,1.69,4.66,2.15,1.89.46,4.27.69,7.13.69,1.28,0,2.71-.17,4.3-.5,1.58-.33,3.09-.88,4.53-1.65,1.43-.76,2.62-1.74,3.57-2.93.94-1.19,1.42-2.64,1.42-4.34,0-1.52-.38-2.85-1.14-3.98-.76-1.13-1.74-2.07-2.93-2.84-1.19-.76-2.48-1.42-3.89-1.97-1.4-.55-2.71-1.04-3.93-1.46-1.65-.61-3.66-1.28-6.04-2.01-2.38-.73-4.68-1.71-6.9-2.93-2.23-1.22-4.11-2.76-5.67-4.62-1.55-1.86-2.33-4.19-2.33-7,0-2.13.59-3.98,1.78-5.53,1.19-1.55,2.73-2.85,4.62-3.89,1.89-1.04,3.98-1.8,6.26-2.29,2.29-.49,4.53-.73,6.72-.73,1.28,0,2.5.03,3.66.09,1.16.06,2.39.18,3.7.37,1.31.18,2.8.41,4.48.69,1.68.27,3.67.63,5.99,1.05,0,.49.03,1.23.09,2.24.06,1.01.09,2.03.09,3.06v5.03c0,1.04-.06,1.68-.18,1.92-.85,0-1.49-.12-1.92-.37-.49-2.01-1.04-3.73-1.65-5.17-.61-1.43-1.48-2.59-2.61-3.47-1.13-.88-2.56-1.52-4.3-1.92-1.74-.4-3.98-.59-6.72-.59-1.16,0-2.47.14-3.93.41-1.46.27-2.85.73-4.16,1.37-1.31.64-2.41,1.45-3.29,2.42-.88.98-1.33,2.13-1.33,3.47,0,.85.23,1.63.69,2.33.46.7,1.04,1.37,1.74,2.01.7.64,1.51,1.22,2.42,1.74.91.52,1.83.96,2.74,1.33,1.28.55,2.79,1.11,4.53,1.69,1.74.58,3.54,1.24,5.4,1.97,1.86.73,3.7,1.54,5.53,2.42,1.83.88,3.46,1.94,4.89,3.15,1.43,1.22,2.59,2.59,3.47,4.11.88,1.52,1.33,3.26,1.33,5.21Z"/>
  </g>
  <path class="cls-1" d="m288.35,251.48c2.01,0,3.91.47,5.71,1.4,1.79.93,3.36,2.2,4.7,3.8,1.34,1.6,2.39,3.48,3.16,5.64.76,2.15,1.15,4.48,1.15,6.96h-25.13c0,.29.05.67.14,1.15.24,2.35.78,4.52,1.62,6.53.84,2.01,1.9,3.75,3.19,5.2,1.29,1.46,2.76,2.6,4.42,3.41,1.65.81,3.41,1.22,5.28,1.22,2.58,0,4.89-.85,6.93-2.55,2.03-1.7,3.46-3.98,4.27-6.86h.22c-.33,1.63-.92,3.12-1.76,4.49-.84,1.36-1.89,2.54-3.16,3.52-1.27.98-2.71,1.73-4.31,2.26-1.6.53-3.31.79-5.13.79-2.44,0-4.76-.49-6.96-1.47-2.2-.98-4.12-2.32-5.74-4.02-1.63-1.7-2.92-3.68-3.88-5.96-.96-2.27-1.44-4.68-1.44-7.21s.41-5.07,1.22-7.32c.81-2.25,1.96-4.19,3.45-5.82,1.48-1.63,3.24-2.9,5.28-3.8,2.03-.91,4.29-1.36,6.78-1.36Zm-.5.86c-1.58,0-3,.42-4.27,1.26-1.27.84-2.35,1.98-3.23,3.41-.89,1.44-1.54,3.12-1.97,5.06-.43,1.94-.62,4.01-.57,6.21h19.53c0-4.93-.86-8.82-2.58-11.67-1.72-2.85-4.02-4.27-6.89-4.27Z"/>
  <g>
    <path class="cls-5" d="m369.91,166.54c-17.13,26.47-43.41,38.89-77.2,37.61-51.02-1.93-90.82-44.86-88.89-95.88,1.93-51.02,44.86-90.82,95.88-88.89,28.59,1.08,53.66,15.04,69.83,36.07-14.14-15.05-33.98-24.77-56.25-25.61-44.93-1.7-82.73,33.34-84.43,78.28-1.7,44.93,33.34,82.73,78.28,84.43,26.86,1.02,45.46-7.89,62.79-26.02Z"/>
    <path class="cls-4" d="m322.65,172.67c15.63-.47,29.74-6.69,40.35-16.57-12.39,14.63-30.7,24.15-51.37,24.77-38.66,1.16-70.95-29.25-72.11-67.91-1.16-38.66,29.25-70.95,67.91-72.11,21.66-.65,41.32,8.61,54.62,23.67-11.42-10.19-26.61-16.2-43.11-15.71-34.2,1.02-61.1,29.58-60.08,63.78,1.02,34.2,29.58,61.1,63.78,60.08Z"/>
    <path class="cls-6" d="m356.78,147.67c-8.6,9.44-26.22,15.74-39.66,14.96-28.3-1.63-49.92-25.89-48.28-54.19,1.63-28.3,25.89-49.92,54.19-48.28,12.55.72,23.79,5.9,32.27,13.91-6.95-5.05-15.38-8.24-24.6-8.77-25.61-1.48-47.56,18.09-49.03,43.69-1.48,25.61,17.98,46.65,43.58,48.13,10.02.58,23.65-4.48,31.54-9.45Z"/>
    <path class="cls-3" d="m350.71,140.9c-5.14,4.33-12.29,7.49-23.33,7.93-20.9.83-36.89-15.48-37.72-36.38s15.44-38.52,36.35-39.35c9.56-.38,18.42,2.82,25.31,8.39-5.5-3.37-12.03-5.2-18.96-4.92-18.66.74-33.19,16.47-32.45,35.13.74,18.66,14.9,32.93,30.42,33.22,8.26.16,13.15-.58,20.37-4.03Z"/>
  </g>
  <path class="cls-1" d="m521.47,304.07v2.98h-108.87c.26-.44.52-.87.73-1.33.28-.54.52-1.09.73-1.65h107.4Z"/>
  <path class="cls-1" d="m410.5,304.07c-.32,1.03-.68,2.03-1.11,2.98H38.64v-2.98h371.86Z"/>
  <text class="cls-2" transform="translate(65.94 349.56)"><tspan x="0" y="0">Consultora y Administradora de</tspan><tspan x="22.81" y="33.08">Riesgos Patrimoniales y Vida</tspan></text>
</svg>