<?xml version="1.0" encoding="UTF-8"?>
<svg id="Capa_1" data-name="Capa 1" xmlns="http://www.w3.org/2000/svg" viewBox="0 0 247.62 250.83">
  <defs>
    <style>
      .cls-1 {
        fill: #34aef1;
      }

      .cls-2 {
        fill: none;
        stroke: #34aef1;
        stroke-linecap: round;
        stroke-linejoin: round;
        stroke-width: 7.52px;
      }
    </style>
  </defs>
  <g>
    <path class="cls-2" d="m212.56,133.57c0,53.24-35.07,65.14-35.07,65.14,0,0-35.07-11.9-35.07-65.14,17.4,0,35.07-20.04,35.07-20.04,0,0,17.67,20.04,35.07,20.04Z"/>
    <polyline class="cls-2" points="192.52 143.59 177.49 163.63 167.47 153.61"/>
  </g>
  <path class="cls-1" d="m99.19,95.36c18.64,0,33.75-15.11,33.75-33.75s-15.11-33.75-33.75-33.75-33.75,15.11-33.75,33.75c.02,18.63,15.12,33.73,33.75,33.75Zm0-60.76c14.91,0,27,12.09,27,27s-12.09,27-27,27-27-12.09-27-27c.02-14.91,12.1-26.99,27-27Z"/>
  <path class="cls-1" d="m119.44,152.74h-15.37l-25.24-48.54c14.32,6.7,31.03,5.92,44.66-2.09h6.08c7.76.02,15.14,3.39,20.22,9.24,2.53-.38,5.03-.87,7.51-1.42-6.29-9.12-16.66-14.57-27.73-14.57h-7.02c-.64,0-1.26.18-1.8.52-13.21,8.15-29.9,8.15-43.11,0-.54-.34-1.16-.52-1.8-.52h-7.02c-18.63.02-33.73,15.12-33.75,33.75v40.5c.01,9.32,7.56,16.87,16.88,16.88h10.13v30.38h6.75v-30.38h50.63c9.32,0,16.88-7.56,16.88-16.88s-7.56-16.88-16.88-16.88Zm-67.51,27c-5.59,0-10.13-4.53-10.13-10.13v-40.5c0-6.35,2.25-12.5,6.35-17.35l21.31,40.98h-7.4v6.75h10.91l10.53,20.25h-31.57Zm39.18,0l-37.8-72.7c4.53-3.21,9.95-4.93,15.5-4.93h1.33l40.37,77.63h-19.39Zm28.33,0h-1.33l-10.53-20.25h11.86c5.59,0,10.13,4.53,10.13,10.13s-4.53,10.13-10.13,10.13Z"/>
</svg>