<?xml version="1.0" encoding="UTF-8"?>
<svg id="Capa_1" data-name="Capa 1" xmlns="http://www.w3.org/2000/svg" viewBox="0 0 247.62 250.83">
  <defs>
    <style>
      .cls-1 {
        fill: #34aef1;
      }

      .cls-2 {
        fill: none;
        stroke: #34aef1;
        stroke-linecap: round;
        stroke-linejoin: round;
        stroke-width: 7.52px;
      }
    </style>
  </defs>
  <path class="cls-1" d="m155.77,73.2c2.82-.52,5.59-1.34,8.29-2.39-.01,1.33-.6,2.53-1.53,3.34-.78.7-1.82,1.13-2.97,1.13-.62,0-1.21-.13-1.74-.35-.85-.35-1.57-.96-2.05-1.73Z"/>
  <path class="cls-1" d="m164.06,54.7v5.99c-2.92,1.39-5.95,2.5-9,3.15v-9.14c0-3.94-3.2-7.14-7.14-7.14h-60.51c-3.93,0-7.14,3.2-7.14,7.14v16.08c0,2.48-2.01,4.5-4.5,4.5s-4.5-2.02-4.5-4.5v-16.08c0-8.9,7.24-16.14,16.14-16.14h60.51c8.9,0,16.14,7.24,16.14,16.14Z"/>
  <path class="cls-1" d="m201.98,150.83v33.62c0,8.45-6.88,15.33-15.33,15.33H48.69c-8.46,0-15.33-6.88-15.33-15.33v-61.31c0-2.48,2.01-4.5,4.5-4.5s4.5,2.02,4.5,4.5v61.31c0,3.49,2.84,6.33,6.33,6.33h137.96c3.49,0,6.33-2.84,6.33-6.33v-29.69c.48-.01.95-.09,1.41-.25.24-.08,3.23-1.12,7.59-3.68Z"/>
  <path class="cls-1" d="m107.71,141.28c-.14,2.48-2.23,4.39-4.75,4.23-.98-.06-1.96-.12-2.95-.19-21.42-1.49-43.32-5.92-57.65-14.17-3.49-2-6.53-4.23-9-6.7-4.58-4.56-7.23-9.93-7.23-16.2v-25.64c0-8.46,6.88-15.34,15.34-15.34h103.57c-.26.58-.4,1.21-.4,1.88,0,2.44.06,4.82.17,7.12H41.47c-3.5,0-6.34,2.84-6.34,6.34v25.64c0,13.91,26.41,25.26,64.68,28.04,1.21.09,2.44.17,3.67.24,2.48.14,4.38,2.27,4.23,4.75Z"/>
  <path class="cls-1" d="m167.65,137.57c.77.85,1.55,1.66,2.32,2.43-10.77,2.77-22.76,4.49-34.64,5.32-1.23.09-2.46.16-3.69.23-.09.01-.17.01-.25.01-2.38,0-4.36-1.86-4.49-4.25-.14-2.49,1.77-4.61,4.25-4.74,1.48-.08,2.93-.17,4.38-.28,10.2-.74,19.56-2.08,27.8-3.93,1.45,1.92,2.9,3.66,4.32,5.21Z"/>
  <path class="cls-1" d="m131.03,125.78h-26.72c-2.49,0-4.5,2.01-4.5,4.5v12.46c0,.88.07,1.74.2,2.58,1.24,8.13,8.28,14.38,16.75,14.38h1.81c8.47,0,15.52-6.25,16.76-14.38.13-.84.2-1.7.2-2.58v-12.46c0-2.49-2.01-4.5-4.5-4.5Zm-4.5,16.96c0,4.39-3.57,7.96-7.96,7.96h-1.81c-4.38,0-7.95-3.57-7.95-7.96v-7.96h17.72v7.96Z"/>
  <g>
    <path class="cls-2" d="m227.96,74.62c0,35.5-15.59,52.62-25.98,60.09-4.74,3.41-8.4,4.8-9,5.01-.06.03-.09.04-.09.04,0,0-3.51-1.19-8.32-4.51-2.39-1.65-5.1-3.83-7.85-6.65-9.01-9.22-18.52-25.32-18.88-52.33-.01-.44-.02-.89-.02-1.34v-.31c1.57,0,3.15-.16,4.71-.47,5.54-1.04,10.94-3.78,15.61-6.88,8.61-5.72,14.75-12.69,14.75-12.69,0,0,17.67,20.04,35.07,20.04Z"/>
    <polyline class="cls-2" points="207.93 84.64 192.89 104.69 182.87 94.66"/>
  </g>
</svg>