<?xml version="1.0" encoding="UTF-8"?>
<svg id="Capa_1" data-name="Capa 1" xmlns="http://www.w3.org/2000/svg" viewBox="0 0 247.62 250.83">
  <defs>
    <style>
      .cls-1 {
        fill: none;
        stroke: #34aef1;
        stroke-linecap: round;
        stroke-linejoin: round;
        stroke-width: 7.52px;
      }
    </style>
  </defs>
  <g>
    <path class="cls-1" d="m193.41,156.75v20.04H43.09v-40.08c0-5.53,4.49-10.02,10.02-10.02h95.2"/>
    <path class="cls-1" d="m178.38,151.74c0,5.53-4.49,10.02-10.02,10.02s-10.02-4.49-10.02-10.02,4.49-10.02,10.02-10.02"/>
    <path class="cls-1" d="m78.17,176.79v16.03c0,2.22-1.8,4.01-4.01,4.01h-17.03c-2.22,0-4.01-1.8-4.01-4.01v-16.03"/>
    <path class="cls-1" d="m183.39,176.79v16.03c0,2.22-1.8,4.01-4.01,4.01h-17.03c-2.22,0-4.01-1.8-4.01-4.01v-16.03"/>
    <path class="cls-1" d="m138.29,76.58h-60.92c-5.45,0-10.22,3.64-11.65,8.9l-12.61,41.21"/>
    <circle class="cls-1" cx="68.15" cy="151.74" r="10.02"/>
    <rect class="cls-1" x="98.21" y="141.72" width="40.08" height="15.03"/>
    <line class="cls-1" x1="103.22" y1="91.61" x2="128.27" y2="91.61"/>
  </g>
  <g>
    <path class="cls-1" d="m188.4,56.54s-17.67,20.04-35.07,20.04c0,53.24,35.07,65.14,35.07,65.14,0,0,35.07-11.89,35.07-65.14-17.4,0-35.07-20.04-35.07-20.04Z"/>
    <polyline class="cls-1" points="203.43 86.6 188.4 106.64 178.38 96.62"/>
  </g>
</svg>