<?xml version="1.0" encoding="UTF-8"?>
<svg id="Capa_1" data-name="Capa 1" xmlns="http://www.w3.org/2000/svg" viewBox="0 0 247.62 250.83">
  <defs>
    <style>
      .cls-1, .cls-2 {
        fill: none;
        stroke: #34aef1;
        stroke-linejoin: round;
        stroke-width: 7.52px;
      }

      .cls-2 {
        stroke-linecap: round;
      }
    </style>
  </defs>
  <g>
    <polyline class="cls-2" points="184.94 152.74 184.94 192.82 139.84 192.82 139.84 142.72 104.77 142.72 104.77 192.82 59.67 192.82 59.67 117.66"/>
    <polyline class="cls-2" points="129.82 72.57 119.8 62.55 49.65 122.67 34.62 102.63 119.8 32.48 149.86 57.54"/>
    <polyline class="cls-1" points="84.73 62.55 84.73 47.52 59.67 47.52 59.67 82.59"/>
  </g>
  <g>
    <path class="cls-2" d="m179.93,52.53s-17.67,20.04-35.07,20.04c0,53.24,35.07,65.14,35.07,65.14,0,0,35.07-11.89,35.07-65.14-17.4,0-35.07-20.04-35.07-20.04Z"/>
    <polyline class="cls-2" points="194.96 82.59 179.93 102.63 169.91 92.61"/>
  </g>
</svg>