<?xml version="1.0" encoding="UTF-8"?>
<svg id="Capa_1" data-name="Capa 1" xmlns="http://www.w3.org/2000/svg" viewBox="0 0 247.62 250.83">
  <defs>
    <style>
      .cls-1 {
        fill: #34aef1;
      }
    </style>
  </defs>
  <path class="cls-1" d="m179.95,154.08c-3.8-7.93-17.41-18.94-30.56-29.58-7.33-5.93-14.26-11.53-18.68-15.95-1.11-1.11-2.76-1.47-4.22-.95-2.72.99-4.4,1.74-5.73,2.33-2.02.9-2.7,1.21-5.42,1.49-1.2.12-2.29.77-2.96,1.77-5.71,8.54-11.62,7.81-15.57,6.49-1.26-.42-1.49-.96-1.61-1.48-.85-3.55,3.41-11.8,8.92-17.32,13.13-13.13,19.89-16.42,34.19-10.03,16.22,7.25,32.47,12.93,32.63,12.99,2.12.73,4.41-.38,5.14-2.49.73-2.11-.38-4.41-2.49-5.14-.16-.06-16.09-5.62-31.98-12.74-18.52-8.28-28.68-2.83-43.2,11.7-5.52,5.52-13.03,16.7-11.09,24.9.83,3.49,3.29,6.07,6.94,7.28,9.15,3.02,17.5.13,23.72-8.13,2.57-.4,3.97-.98,6.07-1.92.76-.34,1.65-.73,2.83-1.21,4.62,4.34,10.86,9.39,17.42,14.69,11.87,9.6,25.34,20.49,28.37,26.79,1.49,3.11-.11,5.14-1.2,6.07-1.6,1.37-3.79,1.81-4.98.98-1.31-.9-3.01-.95-4.36-.15-1.36.81-2.12,2.33-1.95,3.9.27,2.57-2.08,4.04-3.09,4.55-2.58,1.31-5.28,1.08-6.29.15-1.13-1.05-2.75-1.36-4.19-.82-1.44.54-2.44,1.87-2.58,3.4-.24,2.65-2.21,5.19-4.77,6.19-1.24.47-3.03.75-4.64-.72-1-.9-2.39-1.25-3.69-.94-1.32.32-2.37,1.28-2.84,2.54-.15.4-.5,1.37-4.28,1.37-2.69,0-7.53-1.82-9.89-3.38-2.84-1.87-20.61-15.13-35.97-27.99-2.16-1.82-5.89-5.71-9.18-9.15-2.92-3.05-5.6-5.82-6.97-6.99-1.72-1.45-4.26-1.24-5.69.48-1.44,1.7-1.23,4.26.48,5.69,1.25,1.06,3.68,3.62,6.35,6.4,3.6,3.76,7.33,7.66,9.83,9.76,15.04,12.59,33.12,26.19,36.72,28.55,2.97,1.95,9.38,4.7,14.34,4.7,3.98,0,7.04-.91,9.17-2.7,2.84,1.11,6.07,1.11,9.18-.1,3.68-1.42,6.7-4.29,8.41-7.76,3.18.68,6.83.2,10.14-1.46,3.24-1.63,5.58-4.13,6.74-7.04,3.21.17,6.53-.97,9.26-3.32,4.64-3.97,5.91-10.14,3.23-15.7Z"/>
  <path class="cls-1" d="m107.66,87.16h-36.35c-2.23,0-4.04,1.81-4.04,4.04s1.81,4.04,4.04,4.04h36.35c2.23,0,4.04-1.81,4.04-4.04s-1.81-4.04-4.04-4.04Z"/>
  <path class="cls-1" d="m191.78,145.49c-1.25-1.85-3.76-2.36-5.61-1.1l-11.81,7.93c-1.85,1.24-2.34,3.76-1.1,5.61.78,1.16,2.06,1.79,3.36,1.79.77,0,1.55-.22,2.25-.69l11.81-7.93c1.85-1.24,2.34-3.76,1.1-5.61Z"/>
  <path class="cls-1" d="m166.71,164.76c-2.89-2.28-15.82-15.52-23.82-23.85-1.54-1.62-4.1-1.67-5.71-.12-1.62,1.54-1.66,4.1-.12,5.71,2.08,2.16,20.39,21.25,24.64,24.61.73.58,1.62.86,2.5.86,1.19,0,2.37-.53,3.18-1.54,1.38-1.74,1.08-4.29-.67-5.67Z"/>
  <path class="cls-1" d="m74.09,80.19c-6.92-6.56-34.6-8.68-42.92-9.18-1.15-.06-2.21.32-3.01,1.09-.81.76-1.27,1.83-1.27,2.94v72.69c0,2.23,1.81,4.04,4.04,4.04h24.23c1.74,0,3.3-1.12,3.84-2.79.59-1.81,14.51-44.52,16.34-65.52.11-1.23-.35-2.44-1.24-3.28Zm-21.88,63.51h-17.24v-64.33c12.98,1.03,26.99,3.25,32.07,5.73-2.14,17.69-11.82,49.12-14.83,58.6Z"/>
  <path class="cls-1" d="m216.7,79.09c-31.71,0-49.3,8.12-50.04,8.46-1.05.49-1.83,1.41-2.16,2.51-.32,1.11-.16,2.29.44,3.28,4.99,8.04,20.62,52.67,23.63,63.56.48,1.75,2.08,2.96,3.89,2.96h24.23c2.23,0,4.04-1.81,4.04-4.04v-72.69c0-2.24-1.81-4.04-4.04-4.04Zm-4.04,72.69h-17.17c-3.83-12.47-15.14-44.99-21.44-58.43,6.16-2.09,19.4-5.69,38.62-6.14v64.57Z"/>
</svg>