<?xml version="1.0" encoding="UTF-8"?>
<svg id="Capa_1" data-name="Capa 1" xmlns="http://www.w3.org/2000/svg" viewBox="0 0 247.62 250.83">
  <defs>
    <style>
      .cls-1, .cls-2 {
        fill: #fff;
      }

      .cls-3 {
        fill: #34aef1;
      }

      .cls-2, .cls-4 {
        stroke: #34aef1;
        stroke-linecap: round;
        stroke-linejoin: round;
        stroke-width: 7.52px;
      }

      .cls-4 {
        fill: none;
      }
    </style>
  </defs>
  <path class="cls-3" d="m175.82,189.58h-29.8v-59.49c.11-1.14-.24-2.28-.98-3.15-.81-.95-1.98-1.5-3.22-1.5h-50.2c-1.23,0-2.41.55-3.21,1.49-.75.88-1.1,2.01-.99,3.15v59.5h-30.55v-81.05c12.58,4.5,26.94-.59,34-11.9,5.24,8.79,14.95,14.34,25.2,14.34s19.86-5.63,25.02-14.06c3.91,6.54,10.29,11.43,17.85,13.37-1.28-3.25-2.43-6.75-3.42-10.5-5.01-3.01-8.65-8.08-9.77-14.03h7.03c-.36-2.7-.64-5.52-.83-8.44h-7.14l-4.06-28.54h36.16l1.48,5.52c2.61-1.83,5.01-3.72,7.15-5.52l-1.46-5.44c-.54-1.78-2.18-3-4.04-3H52.65c-1.89,0-3.54,1.25-4.06,3.06l-10.55,36.98c-.02.07-.03.13-.04.2-.02.07-.04.14-.05.21-.04.25-.08.5-.08.75,0,8.64,3.92,16.78,10.56,22.2v94.29h47.44v-64.13h41.7v55.69h-.38v8.44h47.07v-53.81c-2.64-1.95-5.52-4.37-8.44-7.36v52.73ZM99.91,48.77h32.31l4.06,28.54h-40.43l4.06-28.54Zm36.61,36.98c-1.91,9.56-10.35,16.78-20.45,16.78-.72,0-1.43-.03-2.13-.11-8.98-.91-16.56-7.83-18.33-16.67h40.91ZM55.83,48.77h35.55l-4.05,28.54h-39.64l8.14-28.54Zm-9.06,36.98h39.53c-2.58,12.02-15.76,19.13-27.22,14.58-6.22-2.47-10.91-8.03-12.31-14.58Z"/>
  <path class="cls-1" d="m166.25,111.21c3.29,0,6.51-.57,9.57-1.62v27.26c-6.05-6.19-12.26-14.8-16.88-26.57,2.34.61,4.79.93,7.31.93Z"/>
  <g>
    <path class="cls-2" d="m230.63,71.57c0,53.24-35.07,65.14-35.07,65.14,0,0-35.07-11.9-35.07-65.14,17.4,0,35.07-20.04,35.07-20.04,0,0,17.67,20.04,35.07,20.04Z"/>
    <polyline class="cls-4" points="210.59 81.59 195.56 101.63 185.54 91.61"/>
  </g>
</svg>