<?xml version="1.0" encoding="UTF-8"?>
<svg id="Capa_1" data-name="Capa 1" xmlns="http://www.w3.org/2000/svg" viewBox="0 0 247.62 250.83">
  <defs>
    <style>
      .cls-1 {
        fill: none;
        stroke: #34aef1;
        stroke-linecap: round;
        stroke-linejoin: round;
        stroke-width: 6.46px;
      }

      .cls-2 {
        fill: #34aef1;
      }
    </style>
  </defs>
  <g id="g1876">
    <g id="g1882">
      <path class="cls-2" d="m126.09,54.94l-.19-5.81c-.15-4.51-3.79-8.16-8.3-8.31l-5.82-.19c-5.33-.19-10.49,1.95-14.21,5.88l-10.23,11.38-4.74,5.28-10.14,11.28-4.44,4.93-18.3,20.36c-1.38,1.53-3.42,2.24-5.45,1.89l-8.04-1.39c-1.06-.18-2.13.16-2.89.91l-8.76,8.77c-.79.78-1.12,1.92-.89,3,.23,1.09,1,1.99,2.03,2.39l18.55,7.14,6.97,18.11.17.44c.4,1.04,1.3,1.8,2.39,2.03.23.05.45.07.68.07.86,0,1.7-.34,2.33-.96l8.76-8.76c.75-.75,1.1-1.83.91-2.88l-1.38-8.05c-.32-1.82.21-3.64,1.43-4.99.14-.16.29-.31.45-.45l20.43-18.37,4.94-4.44,11.14-10.01,5.31-4.78,10.86-9.76.61-.55c1.81-1.72,3.24-3.76,4.23-5.99,1.13-2.54,1.69-5.33,1.59-8.17Zm-10.28,9.32l-29.99,26.97-23.23,20.89c-3.23,2.89-4.71,7.17-3.97,11.45l1.09,6.37-3.98,3.98-5.85-15.19c-.33-.87-1.02-1.56-1.88-1.89l-15.19-5.85,3.98-3.98,6.36,1.1c4.28.73,8.56-.75,11.46-3.97l20.79-23.13h.01s15.35-17.08,15.35-17.08c.02-.03.05-.05.06-.08l11.58-12.88c2.38-2.51,5.74-3.89,9.16-3.77l5.82.19c1.06.04,1.91.89,1.95,1.95l.19,5.82c.11,3.37-1.2,6.63-3.54,8.93-.07.07-.14.15-.17.17Z"/>
    </g>
    <g id="g1886">
      <path class="cls-2" d="m91.5,60.94c-.27-1.06-1.04-1.92-2.07-2.3l-2.09-.75-40.42-14.62c-1.21-.43-2.54-.13-3.44.77l-8,7.99c-.69.69-1.04,1.65-.95,2.62.09.97.6,1.85,1.4,2.41l32.09,22.32,3.06,2.13c.57.39,1.23.58,1.88.58.91,0,1.79-.37,2.44-1.08h.01s15.35-17.08,15.35-17.08c.02-.03.05-.05.06-.08.69-.8.94-1.88.68-2.91Zm-19.04,13.51l-29.55-20.55,3.74-3.73,35.95,13-10.14,11.28Z"/>
    </g>
    <g id="g1890">
      <path class="cls-2" d="m122.23,118.62l-13.43-39.21-.7-2.05c-.36-1.05-1.22-1.84-2.29-2.12-1.06-.28-2.2,0-3.02.74l-16.97,15.25c-1.23,1.1-1.45,2.93-.53,4.29l2.12,3.12,20.99,30.88c.55.81,1.44,1.34,2.41,1.43.11.01.21.01.31.01.87,0,1.71-.34,2.33-.96l7.99-7.99c.89-.89,1.19-2.21.79-3.39Zm-10.62,3.92l-19.26-28.34,11.14-10.01,11.85,34.62-3.73,3.73Z"/>
    </g>
    <g id="g1894">
      <path class="cls-2" d="m157.09,186.65c1.17,1.94,2.39,3.73,3.64,5.39-2.97,2-6.08,3.78-9.33,5.31-.01,0-.02,0-.03,0-9.17,4.34-19.35,6.75-29.95,6.75-7.59,0-15.05-1.21-22.11-3.55-.56-.18-1.12-.38-1.68-.58-.5-.18-1-.36-1.49-.55-.61-.23-1.21-.48-1.82-.73-.54-.22-1.08-.46-1.62-.7-1.62-.72-3.2-1.5-4.75-2.34-.73-.39-1.44-.8-2.15-1.21-.71-.42-1.42-.85-2.11-1.29-.69-.44-1.38-.9-2.06-1.36-.68-.45-1.35-.92-2.01-1.43-.78-.57-1.54-1.17-2.29-1.77-.48-.38-.95-.77-1.42-1.17-.24-.2-.47-.41-.7-.61-.49-.42-.98-.83-1.46-1.27-.49-.45-.96-.92-1.44-1.38-.06-.07-.13-.13-.19-.19-1.5-1.46-2.94-2.99-4.3-4.59-.81-.93-1.59-1.89-2.34-2.86-.4-.52-.8-1.05-1.19-1.59-.34-.48-.68-.96-1.02-1.45-.67-.97-1.32-1.95-1.93-2.95h0c-.31-.51-.62-1.02-.91-1.53-.32-.54-.63-1.09-.93-1.64-.55-1-1.07-2.02-1.57-3.05,0,0-.01,0-.01-.02-3.59-7.4-5.87-15.42-6.68-23.74-.02-.16-.04-.33-.05-.49-.11-1.19.43-2.3,1.35-2.97l3.19-3.18,3.98-3.98-1.09-6.37c-.74-4.28.74-8.56,3.97-11.45l23.23-20.89,29.99-26.97s.1-.1.17-.17c.58-.58,1.36-.93,2.18-.97,1.07-.05,2.16-.08,3.26-.08,1.03,0,2.06.02,3.08.07,15.06.66,29.63,6.17,41.34,15.67,1.72,1.4,3.38,2.88,4.95,4.42,0,.02.03.03.04.04.89.87,1.76,1.77,2.59,2.69.65.71,1.29,1.44,1.91,2.18.64.75,1.26,1.52,1.86,2.3.3.39.59.78.89,1.17,3.83,5.19,6.96,10.88,9.26,16.89.33.86.64,1.73.93,2.6.16.47.31.94.46,1.41.11.36.22.72.33,1.09-.71-.57-1.59-.88-2.5-.88-1.16,0-2.25.49-3.01,1.35-.02.03-.34.38-.91.98-.07-.25-.14-.49-.23-.74-.23-.75-.47-1.49-.75-2.22-.06-.18-.12-.37-.2-.56-.14-.36-.28-.73-.42-1.09-3.18-8.15-8-15.44-14-21.53-2.35-2.39-4.89-4.59-7.58-6.58-10.76-8-24.02-12.68-38.04-12.68-.59,0-1.18.01-1.76.03l-10.86,9.76-5.31,4.78-11.14,10.01-4.94,4.44-20.43,18.36h0c-.16.15-.31.3-.45.46-1.22,1.35-1.75,3.17-1.43,4.99l1.38,8.05c.19,1.05-.16,2.13-.91,2.88l-7.67,7.66h0c.65,5.67,2.02,11.08,4.01,16.15,7.23,18.44,22.65,32.43,41.71,37.87,5.65,1.61,11.62,2.47,17.8,2.47,8.21,0,16.14-1.59,23.45-4.51,2.18-.86,4.3-1.84,6.36-2.94,2.01-1.05,3.95-2.22,5.83-3.49,0,.02.02.04.03.06Z"/>
    </g>
    <g id="g1898">
      <path class="cls-2" d="m139.66,97.04v-3.97c0-5.94,4.84-10.77,10.78-10.77h18.09c.84,0,1.65.33,2.26.9,0,.02.03.03.04.04.89.87,1.76,1.77,2.59,2.69.65.71,1.29,1.44,1.91,2.18.66.75,1.28,1.52,1.86,2.3.3.39.59.78.89,1.17,3.87,5.19,6.98,10.87,9.26,16.89.33.86.64,1.73.93,2.6.16.47.31.94.46,1.41.12.36.23.73.34,1.1h-.01c-.71-.58-1.59-.89-2.5-.89-1.16,0-2.25.49-3.01,1.35-.02.03-.34.38-.91.98-.07-.25-.14-.49-.23-.74-.23-.75-.47-1.49-.75-2.22-.06-.18-.12-.37-.2-.56-.12-.36-.26-.73-.42-1.09-3.09-8-7.8-15.32-13.88-21.53h-16.72c-2.32,0-4.2,1.88-4.2,4.19v3.97c0,2.31,1.88,4.19,4.2,4.19,3.4,0,6.6,1.33,9.01,3.74,2.41,2.4,3.73,5.6,3.73,9.01v12.58c0,1.27-.12,2.53-.35,3.76-2.6,1.32-5.31,2.4-8.06,3.06,1.19-2.06,1.84-4.43,1.84-6.82v-12.58c0-1.65-.64-3.2-1.81-4.36-1.17-1.17-2.72-1.81-4.36-1.81-5.94,0-10.78-4.83-10.78-10.77Z"/>
      <path class="cls-2" d="m160.77,192.1c-2.76,1.87-5.66,3.55-8.69,5.01-.22.11-.45.19-.68.24-.01,0-.02,0-.03,0-.24.05-.48.08-.72.08-.85,0-1.7-.33-2.33-.97l-14.26-14.26c-2.34-2.34-3.63-5.46-3.63-8.78v-9.89c0-3.32,1.29-6.44,3.63-8.79l11.15-11.14c.12,3,.35,5.87.68,8.62l-7.18,7.18c-1.1,1.1-1.71,2.57-1.71,4.13v9.89c0,1.56.61,3.03,1.71,4.13l12.58,12.58c2-1.06,3.93-2.22,5.8-3.49,1.17,1.94,2.39,3.73,3.64,5.39,1.14-.76,1.18-.71.04.06Z"/>
    </g>
    <g id="g1902">
      <path class="cls-2" d="m115.35,151.78l-7.07-7.06c-1.58-1.59-3.69-2.46-5.92-2.46s-4.35.87-5.93,2.46l-3.18,3.18c-.34.34-.8.53-1.28.53h-17.82c-2.25,0-4.35.87-5.93,2.45l-6.31,6.31-3.35,3.35c-.99,1-1.25,2.5-.64,3.76,0,.01.01.01.01.02.5,1.03,1.02,2.05,1.57,3.05.3.55.61,1.1.93,1.64.29.51.6,1.02.91,1.52h0c.62,1.01,1.27,2,1.93,2.96.34.49.68.97,1.02,1.45.39.54.79,1.07,1.19,1.59.75.97,1.53,1.93,2.34,2.86,1.36,1.6,2.8,3.13,4.3,4.59.06.06.13.12.19.19.91.88,1.84,1.74,2.8,2.56.03.04.06.07.1.09.23.2.46.41.7.61.65.55,1.31,1.09,1.98,1.62.04.03.08.06.12.09.53.42,1.07.83,1.61,1.23.66.49,1.33.96,2.01,1.43.68.46,1.37.92,2.06,1.36.69.44,1.4.87,2.11,1.29.71.41,1.42.82,2.15,1.21,1.55.84,3.13,1.62,4.75,2.34.54.24,1.08.48,1.62.7.61.25,1.21.5,1.82.73.49.19.99.37,1.49.55.56.2,1.12.4,1.68.58.33.11.68.17,1.03.17.68,0,1.36-.22,1.92-.63.86-.61,1.36-1.6,1.36-2.66v-21.33c0-.49.19-.94.53-1.28l11.2-11.19c3.27-3.27,3.27-8.59,0-11.86Zm-4.65,7.21l-11.2,11.19c-1.58,1.58-2.45,3.69-2.45,5.93v16.61c-13.7-5.66-25.18-16.06-32.16-29.21l7.98-7.98c.34-.34.79-.52,1.28-.52h17.82c2.24,0,4.34-.88,5.93-2.46l3.18-3.18c.68-.69,1.87-.69,2.55,0l7.07,7.06c.7.71.7,1.85,0,2.56Z"/>
    </g>
  </g>
  <g>
    <path class="cls-1" d="m216.69,142.8c0,45.75-30.14,55.98-30.14,55.98,0,0-30.14-10.23-30.14-55.98,14.95,0,30.14-17.22,30.14-17.22,0,0,15.19,17.22,30.14,17.22Z"/>
    <polyline class="cls-1" points="199.47 151.41 186.55 168.64 177.94 160.02"/>
  </g>
</svg>