<?xml version="1.0" encoding="UTF-8"?>
<svg id="Capa_1" data-name="Capa 1" xmlns="http://www.w3.org/2000/svg" viewBox="0 0 247.62 250.83">
  <defs>
    <style>
      .cls-1 {
        stroke-miterlimit: 10;
        stroke-width: 2px;
      }

      .cls-1, .cls-2 {
        stroke: #34aef1;
      }

      .cls-1, .cls-3 {
        fill: #34aef1;
      }

      .cls-2 {
        fill: none;
        stroke-linecap: round;
        stroke-linejoin: round;
        stroke-width: 6.46px;
      }
    </style>
  </defs>
  <g>
    <path class="cls-1" d="m70.95,67.34c2.97-.85,6.21-1.3,9.58-1.3,12.61,0,26.97,6.4,35.55,22.39.58,1.07,1.66,1.74,2.81,1.72,1.15-.01,2.22-.69,2.77-1.78,9.81-19.04,29.92-24.87,44.72-20.78,3.97,1.1,7.5,2.81,10.53,5.06,1.95-1.51,3.72-3.02,5.22-4.38-3.99-3.34-8.75-5.84-14.15-7.34-15.9-4.39-37.07,1.06-49.16,19.38-13.01-19.45-34.28-23.97-49.53-19.61-16.92,4.85-27.43,19.97-27.43,39.45,0,44.98,72.09,99.68,75.16,101.98.55.42,1.2.62,1.84.62s1.29-.2,1.84-.62c1.94-1.46,31.55-23.91,53.01-51.6-1.56-1.36-3.15-2.91-4.75-4.65-18.28,23.53-43.19,43.78-50.1,49.21-11.29-8.87-70.59-57.27-70.59-94.94,0-16.48,8.48-28.74,22.68-32.81Z"/>
    <path class="cls-3" d="m128.51,118.78v-17.27h-19.31v17.27h-16.57v19.91h16.57v17.28h19.31v-17.28h16.57v-19.91h-16.57Zm11.62,14.96h-16.58v17.27h-9.39v-17.27h-16.57v-10h16.57v-17.27h9.39v17.27h16.58v10Z"/>
  </g>
  <g>
    <path class="cls-2" d="m220.76,91.6c0,45.75-30.14,55.98-30.14,55.98,0,0-30.14-10.23-30.14-55.98,14.95,0,30.14-17.22,30.14-17.22,0,0,15.19,17.22,30.14,17.22Z"/>
    <polyline class="cls-2" points="203.54 100.22 190.62 117.44 182.01 108.83"/>
  </g>
</svg>